<svg width="24" height="24" viewBox="0 0 24 24" fill="none" xmlns="http://www.w3.org/2000/svg">
<path fill-rule="evenodd" clip-rule="evenodd" d="M9.12883 4.04916C9.87239 3.38822 10.9036 3 12 3C13.0964 3 14.1276 3.38822 14.8712 4.04916C15.6109 4.70669 16 5.57148 16 6.44444V9H8V6.44444C8 5.57148 8.38911 4.70669 9.12883 4.04916ZM6 9V6.44444C6 4.95993 6.66446 3.5638 7.8001 2.55434C8.93191 1.54829 10.4442 1 12 1C13.5558 1 15.0681 1.54829 16.1999 2.55434C17.3355 3.5638 18 4.95993 18 6.44444V9H19C20.6569 9 22 10.4465 22 12.2308V19.7692C22 21.5535 20.6569 23 19 23H5C3.34315 23 2 21.5535 2 19.7692V12.2308C2 10.4465 3.34315 9 5 9H6ZM14 16C14 17.1046 13.1046 18 12 18C10.8954 18 10 17.1046 10 16C10 14.8954 10.8954 14 12 14C13.1046 14 14 14.8954 14 16Z" fill="#242D35"/>
</svg>
