<svg width="24" height="24" viewBox="0 0 24 24" fill="none" xmlns="http://www.w3.org/2000/svg">
<path fill-rule="evenodd" clip-rule="evenodd" d="M15.6178 17.0318C14.0781 18.2635 12.1251 19 10 19C5.02944 19 1 14.9706 1 10C1 5.02944 5.02944 1 10 1C14.9706 1 19 5.02944 19 10C19 12.125 18.2636 14.0779 17.032 15.6176L22.7074 21.2929C23.0979 21.6834 23.0979 22.3166 22.7074 22.7071C22.3168 23.0976 21.6837 23.0976 21.2931 22.7071L15.6178 17.0318ZM3 10C3 6.13401 6.13401 3 10 3C13.866 3 17 6.13401 17 10C17 11.9176 16.229 13.655 14.98 14.9193C14.9696 14.9289 14.9593 14.9388 14.9491 14.9489C14.939 14.959 14.9291 14.9693 14.9195 14.9798C13.6552 16.2289 11.9177 17 10 17C6.13401 17 3 13.866 3 10Z" fill="#242D35"/>
</svg>
