<svg width="24" height="24" viewBox="0 0 24 24" fill="none" xmlns="http://www.w3.org/2000/svg">
<g clip-path="url(#clip0_1_27087)">
<path fill-rule="evenodd" clip-rule="evenodd" d="M24 12C24 18.6274 18.6274 24 12 24C5.37258 24 0 18.6274 0 12C0 5.37258 5.37258 0 12 0C18.6274 0 24 5.37258 24 12ZM13.0909 4.36364C13.0909 3.76114 12.6025 3.27273 12 3.27273C11.3975 3.27273 10.9091 3.76114 10.9091 4.36364V12C10.9091 12.6025 11.3975 13.0909 12 13.0909H19.6364C20.2389 13.0909 20.7273 12.6025 20.7273 12C20.7273 11.3975 20.2389 10.9091 19.6364 10.9091H13.0909V4.36364Z" fill="#242D35"/>
</g>
<defs>
<clipPath id="clip0_1_27087">
<rect width="24" height="24" fill="white"/>
</clipPath>
</defs>
</svg>
