<svg width="24" height="24" viewBox="0 0 24 24" fill="none" xmlns="http://www.w3.org/2000/svg">
<path d="M21.75 11.6629C21.7538 13.1245 21.4123 14.5663 20.7533 15.871C19.972 17.4343 18.7708 18.7493 17.2843 19.6685C15.7979 20.5878 14.0849 21.075 12.3371 21.0757C10.8755 21.0795 9.43367 20.738 8.12904 20.0791L3.23516 21.7103C2.6508 21.9051 2.09487 21.3492 2.28965 20.7648L3.92094 15.871C3.26197 14.5663 2.92048 13.1245 2.92429 11.6629C2.92497 9.91514 3.41222 8.2021 4.33147 6.71565C5.25073 5.22919 6.56568 4.02803 8.12904 3.24669C9.43367 2.58771 10.8755 2.24622 12.3371 2.25003H12.8908C15.199 2.37737 17.3791 3.35162 19.0138 4.98624C20.6484 6.62086 21.6226 8.80098 21.75 11.1092V11.6629Z" fill="#242D35"/>
</svg>
