<svg width="44" height="44" viewBox="0 0 44 44" fill="none" xmlns="http://www.w3.org/2000/svg">
<path d="M0 12C0 5.37258 5.37258 0 12 0H32C38.6274 0 44 5.37258 44 12V32C44 38.6274 38.6274 44 32 44H12C5.37258 44 0 38.6274 0 32V12Z" fill="#EBEEF0"/>
<g clip-path="url(#clip0_1_27123)">
<path d="M33 22C33 15.9248 28.0752 11 22 11C15.9248 11 11 15.9248 11 22C11 28.0752 15.9248 33 22 33H33V31.1667H28.0729C31.1483 29.1306 32.9987 25.6886 33 22ZM27.3881 29.4161C26.1595 30.3086 24.4394 30.0365 23.5469 28.8074C22.6544 27.5788 22.9265 25.8591 24.1552 24.9662C25.3842 24.0737 27.1039 24.3458 27.9964 25.5749C28.8893 26.8035 28.6167 28.5232 27.3881 29.4161ZM27.2529 17.4019C28.6973 16.9324 30.2487 17.7228 30.7182 19.1672C31.1873 20.612 30.3968 22.1634 28.9524 22.6324C27.5081 23.102 25.9567 22.3115 25.4872 20.8671C25.0181 19.4228 25.8086 17.871 27.2529 17.4019ZM22 12.8333C23.5187 12.8333 24.75 14.0647 24.75 15.5833C24.75 17.102 23.5187 18.3333 22 18.3333C20.4813 18.3333 19.25 17.102 19.25 15.5833C19.25 14.0647 20.4813 12.8333 22 12.8333ZM13.2818 19.1672C13.7513 17.7228 15.3027 16.9324 16.7471 17.4014C18.1914 17.871 18.9819 19.4223 18.5128 20.8667C18.0433 22.3111 16.4919 23.1015 15.0476 22.6324C13.6032 22.1634 12.8127 20.612 13.2818 19.1672ZM20.4531 28.8074C19.5606 30.0365 17.8405 30.3086 16.6119 29.4161C15.3833 28.5232 15.1107 26.8035 16.0036 25.5749C16.8961 24.3463 18.6162 24.0737 19.8448 24.9666C21.0735 25.8591 21.3456 27.5788 20.4531 28.8074ZM21.0833 22C21.0833 21.4938 21.4938 21.0833 22 21.0833C22.5062 21.0833 22.9167 21.4938 22.9167 22C22.9167 22.5062 22.5062 22.9167 22 22.9167C21.4938 22.9167 21.0833 22.5062 21.0833 22Z" fill="#242D35"/>
</g>
<defs>
<clipPath id="clip0_1_27123">
<rect width="22" height="22" fill="white" transform="translate(11 11)"/>
</clipPath>
</defs>
</svg>
