<svg width="24" height="24" viewBox="0 0 24 24" fill="none" xmlns="http://www.w3.org/2000/svg">
<path fill-rule="evenodd" clip-rule="evenodd" d="M21 11.6659L21 11.662L21 11.1073C20.8739 8.99874 19.9796 7.00893 18.4853 5.51467C16.9911 4.02042 15.0013 3.12607 12.8927 3.00003H12.3341C10.9924 2.99653 9.66885 3.31 8.47126 3.91491L8.46557 3.91778C7.02693 4.63679 5.81686 5.74213 4.97094 7.11001C4.12501 8.47789 3.67662 10.0543 3.676 11.6626L3.676 11.6659C3.6725 13.0076 3.98597 14.3312 4.59087 15.5287C4.77119 15.8857 4.80147 16.2999 4.675 16.6794L3.35218 20.6478L7.32064 19.325C7.70006 19.1985 8.11427 19.2288 8.47126 19.4091C9.66885 20.014 10.9924 20.3275 12.3341 20.324L12.3374 20.324C13.9457 20.3234 15.5221 19.875 16.89 19.0291C18.2579 18.1831 19.3632 16.9731 20.0822 15.5344L20.0851 15.5287C20.69 14.3311 21.0035 13.0076 21 11.6659ZM22.5 11.0643V11.662C22.5041 13.24 22.1354 14.7966 21.424 16.205C20.5805 17.8928 19.2837 19.3124 17.6789 20.3048C16.0742 21.2972 14.2248 21.8233 12.338 21.824C10.76 21.8281 9.20345 21.4594 7.79498 20.748L2.68174 22.4524C1.98078 22.6861 1.31391 22.0192 1.54756 21.3183L3.25198 16.205C2.54056 14.7966 2.17189 13.24 2.176 11.662C2.17673 9.77518 2.70277 7.92582 3.69518 6.32106C4.6876 4.7163 6.1072 3.41953 7.79498 2.57601C9.20345 1.86459 10.76 1.49592 12.338 1.50003H12.9357C15.4276 1.63751 17.7813 2.6893 19.546 4.45401C21.3107 6.21873 22.3625 8.57236 22.5 11.0643Z" fill="#242D35"/>
</svg>
