<svg width="24" height="24" viewBox="0 0 24 24" fill="none" xmlns="http://www.w3.org/2000/svg">
<path fill-rule="evenodd" clip-rule="evenodd" d="M6 2.99976C5.44772 2.99976 5 3.44747 5 3.99976V19.9998C5 20.552 5.44772 20.9998 6 20.9998H10C10.5523 20.9998 11 20.552 11 19.9998V3.99976C11 3.44747 10.5523 2.99976 10 2.99976H6ZM7 18.9998V4.99976H9V18.9998H7Z" fill="#242D35"/>
<path fill-rule="evenodd" clip-rule="evenodd" d="M14 2.99976C13.4477 2.99976 13 3.44747 13 3.99976V19.9998C13 20.552 13.4477 20.9998 14 20.9998H18C18.5523 20.9998 19 20.552 19 19.9998V3.99976C19 3.44747 18.5523 2.99976 18 2.99976H14ZM15 18.9998V4.99976H17V18.9998H15Z" fill="#242D35"/>
</svg>
