<svg width="24" height="24" viewBox="0 0 24 24" fill="none" xmlns="http://www.w3.org/2000/svg">
<path fill-rule="evenodd" clip-rule="evenodd" d="M1.5 4.5C1.5 2.84315 2.84315 1.5 4.5 1.5C6.15685 1.5 7.5 2.84315 7.5 4.5C7.5 6.15685 6.15685 7.5 4.5 7.5C2.84315 7.5 1.5 6.15685 1.5 4.5ZM4.5 3C3.67157 3 3 3.67157 3 4.5C3 5.32843 3.67157 6 4.5 6C5.32843 6 6 5.32843 6 4.5C6 3.67157 5.32843 3 4.5 3Z" fill="#242D35"/>
<path fill-rule="evenodd" clip-rule="evenodd" d="M9 4.5C9 2.84315 10.3431 1.5 12 1.5C13.6569 1.5 15 2.84315 15 4.5C15 6.15685 13.6569 7.5 12 7.5C10.3431 7.5 9 6.15685 9 4.5ZM12 3C11.1716 3 10.5 3.67157 10.5 4.5C10.5 5.32843 11.1716 6 12 6C12.8284 6 13.5 5.32843 13.5 4.5C13.5 3.67157 12.8284 3 12 3Z" fill="#242D35"/>
<path fill-rule="evenodd" clip-rule="evenodd" d="M19.5 1.5C17.8431 1.5 16.5 2.84315 16.5 4.5C16.5 6.15685 17.8431 7.5 19.5 7.5C21.1569 7.5 22.5 6.15685 22.5 4.5C22.5 2.84315 21.1569 1.5 19.5 1.5ZM18 4.5C18 3.67157 18.6716 3 19.5 3C20.3284 3 21 3.67157 21 4.5C21 5.32843 20.3284 6 19.5 6C18.6716 6 18 5.32843 18 4.5Z" fill="#242D35"/>
<path fill-rule="evenodd" clip-rule="evenodd" d="M1.5 12C1.5 10.3431 2.84315 9 4.5 9C6.15685 9 7.5 10.3431 7.5 12C7.5 13.6569 6.15685 15 4.5 15C2.84315 15 1.5 13.6569 1.5 12ZM4.5 10.5C3.67157 10.5 3 11.1716 3 12C3 12.8284 3.67157 13.5 4.5 13.5C5.32843 13.5 6 12.8284 6 12C6 11.1716 5.32843 10.5 4.5 10.5Z" fill="#242D35"/>
<path fill-rule="evenodd" clip-rule="evenodd" d="M12 9C10.3431 9 9 10.3431 9 12C9 13.6569 10.3431 15 12 15C13.6569 15 15 13.6569 15 12C15 10.3431 13.6569 9 12 9ZM10.5 12C10.5 11.1716 11.1716 10.5 12 10.5C12.8284 10.5 13.5 11.1716 13.5 12C13.5 12.8284 12.8284 13.5 12 13.5C11.1716 13.5 10.5 12.8284 10.5 12Z" fill="#242D35"/>
<path fill-rule="evenodd" clip-rule="evenodd" d="M16.5 12C16.5 10.3431 17.8431 9 19.5 9C21.1569 9 22.5 10.3431 22.5 12C22.5 13.6569 21.1569 15 19.5 15C17.8431 15 16.5 13.6569 16.5 12ZM19.5 10.5C18.6716 10.5 18 11.1716 18 12C18 12.8284 18.6716 13.5 19.5 13.5C20.3284 13.5 21 12.8284 21 12C21 11.1716 20.3284 10.5 19.5 10.5Z" fill="#242D35"/>
<path fill-rule="evenodd" clip-rule="evenodd" d="M4.5 16.5C2.84315 16.5 1.5 17.8431 1.5 19.5C1.5 21.1569 2.84315 22.5 4.5 22.5C6.15685 22.5 7.5 21.1569 7.5 19.5C7.5 17.8431 6.15685 16.5 4.5 16.5ZM3 19.5C3 18.6716 3.67157 18 4.5 18C5.32843 18 6 18.6716 6 19.5C6 20.3284 5.32843 21 4.5 21C3.67157 21 3 20.3284 3 19.5Z" fill="#242D35"/>
<path fill-rule="evenodd" clip-rule="evenodd" d="M9 19.5C9 17.8431 10.3431 16.5 12 16.5C13.6569 16.5 15 17.8431 15 19.5C15 21.1569 13.6569 22.5 12 22.5C10.3431 22.5 9 21.1569 9 19.5ZM12 18C11.1716 18 10.5 18.6716 10.5 19.5C10.5 20.3284 11.1716 21 12 21C12.8284 21 13.5 20.3284 13.5 19.5C13.5 18.6716 12.8284 18 12 18Z" fill="#242D35"/>
<path fill-rule="evenodd" clip-rule="evenodd" d="M19.5 16.5C17.8431 16.5 16.5 17.8431 16.5 19.5C16.5 21.1569 17.8431 22.5 19.5 22.5C21.1569 22.5 22.5 21.1569 22.5 19.5C22.5 17.8431 21.1569 16.5 19.5 16.5ZM18 19.5C18 18.6716 18.6716 18 19.5 18C20.3284 18 21 18.6716 21 19.5C21 20.3284 20.3284 21 19.5 21C18.6716 21 18 20.3284 18 19.5Z" fill="#242D35"/>
</svg>
