<svg width="24" height="24" viewBox="0 0 24 24" fill="none" xmlns="http://www.w3.org/2000/svg">
<path d="M16.3576 5.1075L18.8926 7.6425L21.5659 4.96833C21.8426 5.59 22.0001 6.27583 22.0001 7C22.0001 9.76167 19.7617 12 17.0001 12C16.5051 12 16.0284 11.9258 15.5767 11.7917L8.30172 20.7825C7.61839 21.5567 6.63339 22 5.60089 22C4.63922 22 3.73506 21.6258 3.05506 20.945C2.35506 20.2458 1.97089 19.2767 2.00172 18.2867C2.03172 17.2975 2.47506 16.3542 3.21756 15.6983L9.46491 10.6432L6.41083 7.58917L5.33333 8.66667L3.17851 6.51184C2.52764 5.86097 2.52764 4.8057 3.17851 4.15482L4.15482 3.17851C4.8057 2.52764 5.86097 2.52764 6.51184 3.17851L8.66667 5.33333L7.58917 6.41083L10.7675 9.58921L12.2084 8.42333C12.0742 7.97167 12.0001 7.495 12.0001 7C12.0001 4.23833 14.2384 2 17.0001 2C17.7242 2 18.4101 2.1575 19.0309 2.43417L16.3576 5.1075Z" fill="#242D35"/>
<path d="M17.7836 13.6167C17.5261 13.6467 17.2652 13.6667 17.0002 13.6667C16.7461 13.6667 16.4936 13.6517 16.2402 13.6225L13.2061 17.3717L16.9711 21.1367C18.1219 22.2875 19.9869 22.2875 21.1377 21.1367C22.2886 19.9859 22.2886 18.1209 21.1377 16.97L17.7836 13.6167Z" fill="#242D35"/>
</svg>
