<svg width="24" height="24" viewBox="0 0 24 24" fill="none" xmlns="http://www.w3.org/2000/svg">
<path fill-rule="evenodd" clip-rule="evenodd" d="M1.56325 2.25C1.11411 2.25 0.75 2.55006 0.75 2.92021V6.82979C0.75 7.19994 1.11411 7.5 1.56325 7.5H22.4367C22.8859 7.5 23.25 7.19994 23.25 6.82979V2.92021C23.25 2.55006 22.8859 2.25 22.4367 2.25H1.56325ZM2.25 9H21.75V21C21.75 21.4142 21.4142 21.75 21 21.75H3C2.58579 21.75 2.25 21.4142 2.25 21V9ZM9 12C9 11.5858 9.40294 11.25 9.9 11.25H14.1C14.5971 11.25 15 11.5858 15 12C15 12.4142 14.5971 12.75 14.1 12.75H9.9C9.40294 12.75 9 12.4142 9 12Z" fill="#242D35"/>
</svg>
