<svg width="24" height="24" viewBox="0 0 24 24" fill="none" xmlns="http://www.w3.org/2000/svg">
<path d="M12.5339 1.18293C12.2199 0.939023 11.7801 0.939023 11.4661 1.18293L2.3357 8.27504C2.12389 8.43956 2 8.69254 2 8.96053V20.1053C2 20.873 2.30538 21.6093 2.84897 22.1522C3.39255 22.695 4.12981 23 4.89855 23H7.50725C8.06754 23 8.52174 22.5464 8.52174 21.9868V13.7368C8.52174 13.2572 8.91106 12.8684 9.3913 12.8684H14.6087C15.0889 12.8684 15.4783 13.2572 15.4783 13.7368V21.9868C15.4783 22.5464 15.9325 23 16.4928 23H19.1014C19.8702 23 20.6075 22.695 21.151 22.1522C21.6946 21.6093 22 20.873 22 20.1053V8.96053C22 8.69254 21.8761 8.43956 21.6643 8.27504L12.5339 1.18293Z" fill="#242D35"/>
</svg>
