<svg width="24" height="24" viewBox="0 0 24 24" fill="none" xmlns="http://www.w3.org/2000/svg">
<path fill-rule="evenodd" clip-rule="evenodd" d="M13 1C12.4477 1 12 1.44772 12 2C12 2.55228 12.4477 3 13 3H15V13C15 13.5527 14.5527 14 14 14H12C11.4473 14 11 13.5527 11 13V8C11 6.34272 9.65728 5 8 5H3C1.34272 5 0 6.34272 0 8V17C0 18.341 0.87917 19.4761 2.09278 19.8605C2.48641 21.656 4.08626 23 6 23C7.86384 23 9.42994 21.7252 9.87398 20H16.126C16.5701 21.7252 18.1362 23 20 23C22.2091 23 24 21.2091 24 19C24 17.8657 23.5279 16.8417 22.7694 16.1137L20.3891 9H21C21.5523 9 22 8.55228 22 8V4C22 3.44772 21.5523 3 21 3H18C17.6493 3 17.3128 3.06011 17 3.1706V2C17 1.44772 16.5523 1 16 1H13ZM17 8.8294V13C17 14.6573 15.6573 16 14 16H12C10.3427 16 9 14.6573 9 13V11H2V17C2 17.2458 2.08849 17.4708 2.23539 17.6449C2.79061 16.1027 4.26653 15 6 15C7.86384 15 9.42994 16.2748 9.87398 18H16.126C16.5701 16.2748 18.1362 15 20 15C20.0979 15 20.195 15.0035 20.2912 15.0104L18.2801 9H18C17.6493 9 17.3128 8.93989 17 8.8294ZM4 19C4 20.1046 4.89543 21 6 21C7.10457 21 8 20.1046 8 19C8 17.8954 7.10457 17 6 17C4.89543 17 4 17.8954 4 19ZM17 6C17 5.44728 17.4473 5 18 5H20V7H19.0233C19.0079 6.99964 18.9924 6.99964 18.977 7H18C17.4473 7 17 6.55272 17 6ZM18 19C18 20.1046 18.8954 21 20 21C21.1046 21 22 20.1046 22 19C22 17.8954 21.1046 17 20 17C18.8954 17 18 17.8954 18 19ZM2 8C2 7.44728 2.44728 7 3 7H8C8.55272 7 9 7.44728 9 8V9H2V8Z" fill="#242D35"/>
</svg>
