<svg width="24" height="24" viewBox="0 0 24 24" fill="none" xmlns="http://www.w3.org/2000/svg">
<path fill-rule="evenodd" clip-rule="evenodd" d="M10.6623 2.05109C9.94933 2.05109 9.26553 2.3454 8.76136 2.86926C8.2572 3.39313 7.97396 4.10365 7.97396 4.84451L7.97396 17.246C7.97396 18.4933 8.45081 19.6895 9.2996 20.5715C10.1484 21.4534 11.2996 21.9489 12.5 21.9489C13.7004 21.9489 14.8516 21.4534 15.7004 20.5715C16.5492 19.6895 17.026 18.4933 17.026 17.246L17.026 4.84451C17.026 4.27811 17.4679 3.81896 18.013 3.81896C18.5581 3.81896 19 4.27811 19 4.84451L19 17.246C19 19.0373 18.3152 20.7552 17.0962 22.0218C15.8772 23.2884 14.2239 24 12.5 24C10.7761 24 9.12279 23.2884 7.90381 22.0218C6.68482 20.7552 6 19.0373 6 17.246L6 4.84451C6 3.55966 6.49121 2.32745 7.36556 1.41892C8.23992 0.510403 9.4258 6.11272e-08 10.6623 0C11.8989 0 13.0847 0.510402 13.9591 1.41892C14.8334 2.32744 15.3247 3.55966 15.3247 4.84451L15.3182 17.2528C15.318 18.031 15.0204 18.7778 14.4908 19.3281C13.9611 19.8786 13.2427 20.1878 12.4935 20.1878C11.7444 20.1878 11.0259 19.8786 10.4962 19.3281C9.96645 18.7777 9.66885 18.0312 9.66885 17.2528L9.67535 5.80202C9.67567 5.23562 10.1178 4.77674 10.6629 4.77708C11.208 4.77741 11.6496 5.23683 11.6493 5.80323L11.6428 17.2528C11.643 17.487 11.7326 17.7122 11.892 17.8778C12.0515 18.0436 12.2679 18.1367 12.4935 18.1367C12.7191 18.1367 12.9355 18.0436 13.095 17.8778C13.2546 17.712 13.3442 17.4872 13.3442 17.2528L13.3507 4.84451C13.3506 4.10385 13.0673 3.393 12.5633 2.86926C12.0591 2.3454 11.3753 2.05109 10.6623 2.05109Z" fill="#242D35"/>
</svg>
