<svg width="24" height="24" viewBox="0 0 24 24" fill="none" xmlns="http://www.w3.org/2000/svg">
<path fill-rule="evenodd" clip-rule="evenodd" d="M12 0C11.0011 0 10.0459 0.404017 9.34368 1.11875C8.64192 1.83304 8.25 2.79904 8.25 3.80357V11.9464C8.25 12.951 8.64192 13.917 9.34368 14.6312C10.0459 15.346 11.0011 15.75 12 15.75C12.9989 15.75 13.9541 15.346 14.6563 14.6312C15.3581 13.917 15.75 12.951 15.75 11.9464V3.80357C15.75 2.79904 15.3581 1.83304 14.6563 1.11875C13.9541 0.404017 12.9989 0 12 0ZM10.4137 2.16999C10.8367 1.73941 11.4076 1.5 12 1.5C12.5924 1.5 13.1633 1.73941 13.5863 2.16999C14.0098 2.60101 14.25 3.18838 14.25 3.80357V11.9464C14.25 12.5616 14.0098 13.149 13.5863 13.58C13.1633 14.0106 12.5924 14.25 12 14.25C11.4076 14.25 10.8367 14.0106 10.4137 13.58C9.99022 13.149 9.75 12.5616 9.75 11.9464V3.80357C9.75 3.18838 9.99022 2.60101 10.4137 2.16999Z" fill="#242D35"/>
<path d="M6 9.75C6 9.33579 5.66421 9 5.25 9C4.83579 9 4.5 9.33579 4.5 9.75V11.75C4.5 13.7968 5.2838 15.765 6.68715 17.2203C7.91452 18.4932 9.52866 19.2825 11.25 19.4612V22.5H8.00024C7.58603 22.5 7.25024 22.8358 7.25024 23.25C7.25024 23.6642 7.58603 24 8.00024 24H16.0002C16.4145 24 16.7502 23.6642 16.7502 23.25C16.7502 22.8358 16.4145 22.5 16.0002 22.5H12.75V19.4612C14.4713 19.2825 16.0855 18.4932 17.3129 17.2203C18.7162 15.765 19.5 13.7968 19.5 11.75V9.75C19.5 9.33579 19.1642 9 18.75 9C18.3358 9 18 9.33579 18 9.75V11.75C18 13.4162 17.3615 15.009 16.2331 16.1791C15.1056 17.3484 13.5823 18 12 18C10.4177 18 8.89441 17.3484 7.76691 16.1791C6.63852 15.009 6 13.4162 6 11.75V9.75Z" fill="#242D35"/>
</svg>
