<svg width="24" height="24" viewBox="0 0 24 24" fill="none" xmlns="http://www.w3.org/2000/svg">
<path d="M9.62762 0.779136C10.4263 0.190884 11.4151 -0.0796646 12.402 0.0200136C13.3889 0.119692 14.3036 0.582485 14.9685 1.31855C15.6332 2.05437 16.0007 3.01079 16 4.00227V9.34159C16 9.89381 15.5523 10.3415 15 10.3415C14.4477 10.3415 14 9.89381 14 9.34159L14 4.00127C14.0005 3.50535 13.8167 3.02694 13.4843 2.6589C13.1518 2.29087 12.6945 2.05947 12.201 2.00963C11.7075 1.9598 11.2131 2.09507 10.8138 2.3892C10.4145 2.68332 10.1387 3.11532 10.04 3.60132C9.9301 4.14249 9.40224 4.49211 8.86101 4.38222C8.31977 4.27234 7.9701 3.74455 8.08 3.20338C8.2774 2.23138 8.82896 1.36739 9.62762 0.779136Z" fill="#242D35"/>
<path fill-rule="evenodd" clip-rule="evenodd" d="M1.29289 1.7097L8.00334 8.4193C8.00113 8.44646 8 8.47393 8 8.50167V12.0013C8.0007 12.7918 8.23567 13.5652 8.67524 14.2223C9.11481 14.8794 9.73927 15.3914 10.4697 15.6939C11.2002 15.9963 12.0039 16.0755 12.7794 15.9214C13.459 15.7865 14.0901 15.4777 14.6123 15.0274L16.0573 16.4722C15.2576 17.2061 14.2722 17.7107 13.205 17.9295C12.0337 18.1696 10.8173 18.0543 9.71201 17.5984C8.6067 17.1425 7.66281 16.3668 7.00145 15.3709C6.34009 14.3749 5.99141 13.2041 6.00016 12.0086L6.00019 12.0013V10.0015C6.00019 9.44932 5.55247 9.00166 5.00019 9.00166C4.4479 9.00166 4.00019 9.44932 4.00019 10.0015V11.9977C3.98929 13.5904 4.45415 15.1501 5.33527 16.477C6.21708 17.805 7.4756 18.8392 8.94935 19.4471C9.60944 19.7193 10.2992 19.9005 11 19.9887V22H8C7.44772 22 7 22.4477 7 22.9999C7 23.5521 7.44772 23.9998 8 23.9998H16C16.5523 23.9998 17 23.5521 17 22.9999C17 22.4477 16.5523 22 16 22H13V19.9887C13.2029 19.9632 13.4053 19.9298 13.6066 19.8885C15.0576 19.5911 16.3953 18.8973 17.4724 17.8872L21.2929 21.7072C21.6834 22.0976 22.3166 22.0976 22.7071 21.7072C23.0976 21.3167 23.0976 20.6836 22.7071 20.2931L2.70711 0.295665C2.31658 -0.0948092 1.68342 -0.0948092 1.29289 0.295665C0.902369 0.68614 0.902369 1.31922 1.29289 1.7097ZM10 12.0007V10.4157L13.1903 13.6056C12.9539 13.7807 12.6807 13.9022 12.3897 13.96C12.002 14.037 11.6001 13.9974 11.2349 13.8462C10.8696 13.695 10.5574 13.439 10.3376 13.1105C10.1179 12.782 10.0004 12.3959 10 12.0007Z" fill="#242D35"/>
<path d="M20.0002 10.0015C20.0002 9.44932 19.5525 9.00166 19.0002 9.00166C18.4479 9.00166 18.0002 9.44932 18.0002 10.0015V12.0004C17.9999 12.3539 17.9683 12.7066 17.9059 13.0546C17.8084 13.5981 18.17 14.1178 18.7136 14.2153C19.2572 14.3128 19.7769 13.9512 19.8745 13.4077C19.9577 12.9438 19.9998 12.4735 20.0002 12.0022L20.0002 10.0015Z" fill="#242D35"/>
</svg>
