<svg width="24" height="24" viewBox="0 0 24 24" fill="none" xmlns="http://www.w3.org/2000/svg">
<path fill-rule="evenodd" clip-rule="evenodd" d="M23 9.8V5.3C23 4.8 22.5004 4.3 22.0007 4.3H18.7031C17.7038 4.3 16.7045 4.8 16.1049 5.7L15.2055 1.8C15.1056 1.3 14.7059 1 14.2062 1H9.80937C9.20979 1 8.81008 1.4 8.81008 2C8.81008 2.6 9.20979 3 9.80937 3H13.4068L15.8051 13.8H11.9079V12C11.9079 11.5 11.4082 11 10.9086 11H2.0149C1.51526 11 1.01561 11.5 1.01561 12V19.8C1.01561 20.3 1.51526 20.8 2.0149 20.8H2.51455C3.11412 22.2 4.4132 23 5.91214 23C7.41107 23 8.71015 22.1 9.30972 20.8H15.905V20.9C16.5046 22.2 17.8037 23 19.2027 23C21.3012 23 23 21.3 23 19.2C23 18.4 22.7002 17.7 22.3005 17L20.9015 10.8H22.0007C22.5004 10.8 23 10.3 23 9.8ZM5.91214 21C4.91285 21 4.11341 20.2 4.11341 19.2C4.11341 18.2 4.91285 17.4 5.91214 17.4C6.91143 17.4 7.71086 18.2 7.71086 19.2C7.71086 20.2 6.91143 21 5.91214 21ZM21.0014 8.8H18.7031C18.0035 8.8 17.5039 8.3 17.404 7.6C17.404 6.9 18.0035 6.3 18.7031 6.3H21.0014V8.8ZM19.0028 21C20.1066 21 21.0014 20.1046 21.0014 19C21.0014 17.8954 20.1066 17 19.0028 17C17.8991 17 17.0043 17.8954 17.0043 19C17.0043 20.1046 17.8991 21 19.0028 21ZM8.70995 9.70001H2.01471C1.41513 9.70001 1.01542 9.30001 1.01542 8.70001C0.915486 8.20001 1.3152 7.80001 1.81485 7.70001H8.70995C9.30952 7.70001 9.70924 8.10001 9.70924 8.70001C9.70924 9.20001 9.20959 9.70001 8.70995 9.70001Z" fill="#242D35"/>
</svg>
