<svg width="44" height="44" viewBox="0 0 44 44" fill="none" xmlns="http://www.w3.org/2000/svg">
<path d="M0 12C0 5.37258 5.37258 0 12 0H32C38.6274 0 44 5.37258 44 12V32C44 38.6274 38.6274 44 32 44H12C5.37258 44 0 38.6274 0 32V12Z" fill="#EBEEF0"/>
<g clip-path="url(#clip0_1_27115)">
<path d="M18.625 29.125H19.375V29.875H18.625V29.125Z" fill="#242D35"/>
<path d="M31 32.875V19.2662L22 13.1564L13 19.2662V23.2686C13.5378 23.2686 14.0148 23.5907 14.2165 24.0895C15.151 26.4002 15.625 27.9685 15.625 28.75C15.625 30.3137 14.6804 31.5224 13.375 31.7189V30.9587C14.2308 30.7686 14.875 29.929 14.875 28.75C14.875 27.871 14.0759 25.7425 13.5209 24.3704C13.3311 23.9012 12.6685 23.9012 12.4787 24.3704C11.9241 25.7425 11.125 27.871 11.125 28.75C11.125 29.9294 11.7692 30.7686 12.625 30.9587V32.875H10.75V33.625H33.25V32.875H31ZM25.75 28L26.5 26.875L27.25 28V29.125H28.75V28L29.5 26.875L30.25 28V32.875H28.75V30.625H27.25V32.875H25.75V30.625H24.25V32.875H22.75V28L23.5 26.875L24.25 28V29.125H25.75V28ZM22.375 20.5H24.25V21.25C24.25 21.8714 23.7464 22.375 23.125 22.375H22.375V20.5ZM23.125 17.875C23.7464 17.875 24.25 18.3786 24.25 19V19.75H22.375V17.875H23.125ZM19.75 19C19.75 18.3786 20.2536 17.875 20.875 17.875H21.625V19.75H19.75V19ZM19.75 20.5H21.625V22.375H20.875C20.2536 22.375 19.75 21.8714 19.75 21.25V20.5ZM20.5 25.75V32.875H16.375V25.75H20.5Z" fill="#242D35"/>
<path d="M22 12.4064L32.0789 19.2456L32.9211 18.004L22 10.5936L11.0789 18.004L11.9211 19.2456L22 12.4064Z" fill="#242D35"/>
</g>
<defs>
<clipPath id="clip0_1_27115">
<rect width="24" height="24" fill="white" transform="translate(10 10)"/>
</clipPath>
</defs>
</svg>
