<svg width="24" height="24" viewBox="0 0 24 24" fill="none" xmlns="http://www.w3.org/2000/svg">
<path d="M11.2929 5.70711C10.9024 5.31658 10.9024 4.68342 11.2929 4.29289C11.6834 3.90237 12.3166 3.90237 12.7071 4.29289L19.7071 11.2929C19.8991 11.4849 19.9967 11.7355 19.9999 11.9871C20 11.9914 20 11.9957 20 12C20 12.0043 20 12.0086 19.9999 12.0129C19.9983 12.1434 19.9716 12.2679 19.9245 12.3818C19.8757 12.5001 19.8033 12.611 19.7071 12.7071L12.7071 19.7071C12.3166 20.0976 11.6834 20.0976 11.2929 19.7071C10.9024 19.3166 10.9024 18.6834 11.2929 18.2929L16.5858 13H5C4.44771 13 4 12.5523 4 12C4 11.4477 4.44771 11 5 11H16.5858L11.2929 5.70711Z" fill="#242D35"/>
</svg>
