<svg width="24" height="24" viewBox="0 0 24 24" fill="none" xmlns="http://www.w3.org/2000/svg">
<path d="M9.82758 0.746213C10.5589 0.182994 11.4643 -0.0760407 12.3681 0.0193956C13.2718 0.114832 14.1094 0.55793 14.7182 1.26267C15.3269 1.96722 15.6635 2.88303 15.6628 3.83238V9.28529C15.6628 9.70826 15.3348 10.0511 14.9302 10.0511C14.5256 10.0511 14.1976 9.70826 14.1976 9.28529L14.1976 3.83161C14.1979 3.53553 14.1435 3.24488 14.0399 2.97464C13.9442 2.72509 13.8062 2.49225 13.6309 2.28932C13.2656 1.86648 12.7631 1.60062 12.2208 1.54336C11.9604 1.51586 11.6996 1.53748 11.4504 1.60472C11.1808 1.67752 10.9246 1.80384 10.6965 1.97945C10.2577 2.31738 9.95469 2.81371 9.84624 3.37209C9.76573 3.78661 9.37905 4.0544 8.98256 3.97023C8.58607 3.88606 8.32992 3.4818 8.41043 3.06729C8.59118 2.13665 9.09625 1.30943 9.82758 0.746213Z" fill="#242D35"/>
<path fill-rule="evenodd" clip-rule="evenodd" d="M1.71456 1.31058L8.35589 8.2538C8.34351 8.30961 8.33697 8.36775 8.33697 8.42749V12.0022C8.33761 12.7591 8.55277 13.4988 8.95529 14.1279C9.3578 14.757 9.92962 15.2473 10.5985 15.5368C11.2674 15.8264 12.0034 15.9022 12.7135 15.7547C13.41 15.6101 14.051 15.2569 14.5587 14.7386L16.312 16.5716C15.4679 17.4522 14.3952 18.0555 13.226 18.306C12.0343 18.5615 10.7967 18.4388 9.67211 17.9538C8.54751 17.4688 7.58716 16.6436 6.91427 15.5841C6.24137 14.5246 5.88663 13.279 5.89553 12.0072V9.95933C5.89553 9.53636 5.56755 9.19347 5.16297 9.19347C4.75839 9.19347 4.43042 9.53636 4.43042 9.95933V11.9989C4.41993 13.5749 4.8598 15.1183 5.69369 16.4314C6.52808 17.7452 7.71892 18.7684 9.11341 19.3698C9.8049 19.668 10.5308 19.8557 11.2672 19.9306V22.4683H8.09302C7.68844 22.4683 7.36047 22.8112 7.36047 23.2341C7.36047 23.6571 7.68844 24 8.09302 24H15.907C16.3116 24 16.6395 23.6571 16.6395 23.2341C16.6395 22.8112 16.3116 22.4683 15.907 22.4683H12.7323V19.9307C12.996 19.9039 13.259 19.8625 13.5202 19.8065C14.9705 19.4957 16.3012 18.7473 17.348 17.6547L21.2494 21.7335C21.5355 22.0325 21.9994 22.0325 22.2854 21.7335C22.5715 21.4344 22.5715 20.9495 22.2854 20.6504L2.75056 0.227493C2.46447 -0.0715929 2.00064 -0.0715929 1.71456 0.227493C1.42848 0.526579 1.42848 1.01149 1.71456 1.31058ZM9.80209 12.0011V9.76574L13.5226 13.6554C13.22 13.9594 12.8402 14.1668 12.428 14.2524C12.0019 14.3409 11.5603 14.2954 11.159 14.1216C10.7577 13.9479 10.4146 13.6537 10.1731 13.2763C9.93162 12.8989 9.80252 12.4552 9.80209 12.0011Z" fill="#242D35"/>
<path d="M19.57 9.95933C19.57 9.53636 19.242 9.19347 18.8374 9.19347C18.4328 9.19347 18.1048 9.53636 18.1048 9.95933V12.001C18.1045 12.377 18.0724 12.7523 18.0089 13.1224C17.9375 13.5387 18.2024 13.9368 18.6006 14.0114C18.9988 14.0861 19.3796 13.8092 19.451 13.3929C19.5298 12.9339 19.5696 12.4679 19.57 12.0016V9.95933Z" fill="#242D35"/>
</svg>
