<svg width="44" height="44" viewBox="0 0 44 44" fill="none" xmlns="http://www.w3.org/2000/svg">
<rect width="44" height="44" rx="12" fill="#EBEEF0"/>
<path d="M12.9375 15.9062C12.6874 15.9062 12.4844 16.1167 12.4844 16.375C12.4844 16.6333 12.6874 16.8438 12.9375 16.8438H17.4688C17.7189 16.8438 17.9219 16.6333 17.9219 16.375C17.9219 16.1167 17.7189 15.9062 17.4688 15.9062H12.9375Z" fill="#242D35"/>
<path d="M15.7459 14.9688L16.5162 11.3842C16.2095 11.1217 15.6721 10.75 15.2031 10.75C14.7341 10.75 14.1967 11.1217 13.8904 11.3842L14.6607 14.9688H15.7459Z" fill="#242D35"/>
<path d="M33.7812 19.6562H34.6875C34.9376 19.6562 35.1406 19.4458 35.1406 19.1875C35.1406 18.9292 34.9376 18.7188 34.6875 18.7188H33.7812C33.5311 18.7188 33.3281 18.9292 33.3281 19.1875C33.3281 19.4458 33.5311 19.6562 33.7812 19.6562Z" fill="#242D35"/>
<path d="M13.7319 14.9687L13.1546 12.2814L12.9869 12.3104C12.2529 12.437 11.6996 13.0351 11.5958 13.7767L13.5162 14.9687H13.7319Z" fill="#242D35"/>
<path d="M26.9386 11.2188H25.1719V13.0464C26.0582 12.8594 26.7578 12.1356 26.9386 11.2188Z" fill="#242D35"/>
<path d="M28.7969 15.9063C29.2967 15.9063 29.7031 16.3267 29.7031 16.8438C29.7031 16.8531 29.7009 16.8616 29.7004 16.8705C30.8504 16.9759 31.9071 17.4827 32.7255 18.3123C32.8818 18.1108 33.0884 17.9561 33.3281 17.8675V13.9938C31.942 13.787 30.8455 12.6527 30.6456 11.2188H27.8544C27.6545 12.6527 26.558 13.787 25.1719 13.9938V15.9105C25.1877 15.91 25.2031 15.9063 25.219 15.9063H28.7969Z" fill="#242D35"/>
<path d="M33.3281 13.0464V11.2188H31.5614C31.7422 12.1356 32.4418 12.8594 33.3281 13.0464Z" fill="#242D35"/>
<path d="M18.8105 13.7767C18.7067 13.0347 18.1534 12.437 17.4194 12.3104L17.2517 12.2814L16.6744 14.9687H16.8901L18.8105 13.7767Z" fill="#242D35"/>
<path d="M32.4409 19.3806C31.7028 18.4178 30.6261 17.8497 29.4453 17.7925C29.129 18.3442 28.554 18.7187 27.8906 18.7187H25.8674L25.8497 18.7464C25.6631 19.0361 25.4315 19.2822 25.1719 19.4875V22C25.1719 24.3259 27.0011 26.2187 29.25 26.2187C30.5074 26.2187 31.662 25.6351 32.4409 24.6194C32.4794 24.3348 32.5981 24.0789 32.7758 23.875C32.5583 23.6256 32.4223 23.2989 32.4223 22.9375C32.4223 22.5761 32.5587 22.2494 32.7758 22C32.5583 21.7506 32.4223 21.4239 32.4223 21.0625C32.4223 20.7011 32.5587 20.3744 32.7758 20.125C32.5977 19.9211 32.479 19.6651 32.4409 19.3806ZM29.25 21.5312C29.9995 21.5312 30.6094 22.1622 30.6094 22.9375C30.6094 23.5478 30.2292 24.0634 29.7031 24.2575V25.2812H28.7969V24.2575C28.2708 24.0634 27.8906 23.5478 27.8906 22.9375H28.7969C28.7969 23.1958 28.9999 23.4062 29.25 23.4062C29.5001 23.4062 29.7031 23.1958 29.7031 22.9375C29.7031 22.6792 29.5001 22.4687 29.25 22.4687C28.5005 22.4687 27.8906 21.8378 27.8906 21.0625C27.8906 20.4522 28.2708 19.9365 28.7969 19.7425V18.7187H29.7031V19.7425C30.2292 19.9365 30.6094 20.4522 30.6094 21.0625H29.7031C29.7031 20.8042 29.5001 20.5937 29.25 20.5937C28.9999 20.5937 28.7969 20.8042 28.7969 21.0625C28.7969 21.3208 28.9999 21.5312 29.25 21.5312Z" fill="#242D35"/>
<path d="M34.6875 24.3438H33.7812C33.5311 24.3438 33.3281 24.5542 33.3281 24.8125C33.3281 25.0708 33.5311 25.2812 33.7812 25.2812H34.6875C34.9376 25.2812 35.1406 25.0708 35.1406 24.8125C35.1406 24.5542 34.9376 24.3438 34.6875 24.3438Z" fill="#242D35"/>
<path d="M34.6875 22.4688H33.7812C33.5311 22.4688 33.3281 22.6792 33.3281 22.9375C33.3281 23.1958 33.5311 23.4062 33.7812 23.4062H34.6875C34.9376 23.4062 35.1406 23.1958 35.1406 22.9375C35.1406 22.6792 34.9376 22.4688 34.6875 22.4688Z" fill="#242D35"/>
<path d="M29.25 27.1562C27.5644 27.1562 26.0745 26.2839 25.1719 24.9554V30.0062C26.558 30.2129 27.6545 31.3473 27.8544 32.7812H30.6456C30.8455 31.3473 31.942 30.2129 33.3281 30.0062V26.1325C33.0884 26.0439 32.8818 25.8892 32.7255 25.6876C31.8011 26.6251 30.5727 27.1562 29.25 27.1562Z" fill="#242D35"/>
<path d="M34.6875 20.5938H33.7812C33.5311 20.5938 33.3281 20.8042 33.3281 21.0625C33.3281 21.3208 33.5311 21.5312 33.7812 21.5312H34.6875C34.9376 21.5312 35.1406 21.3208 35.1406 21.0625C35.1406 20.8042 34.9376 20.5938 34.6875 20.5938Z" fill="#242D35"/>
<path d="M25.1719 30.9536V32.7813H26.9386C26.7578 31.8644 26.0582 31.1406 25.1719 30.9536Z" fill="#242D35"/>
<path d="M31.5614 32.7813H33.3281V30.9536C32.4418 31.1406 31.7422 31.8644 31.5614 32.7813Z" fill="#242D35"/>
<path d="M27.8907 17.7812C28.3905 17.7812 28.7969 17.3608 28.7969 16.8438H25.219C24.7065 16.8438 24.204 17.0261 23.8039 17.3575L22.1591 18.7188H19.0157L20.3294 20.0777C21.357 21.1408 22.0381 22.4669 22.314 23.9097L23.388 24.7984C23.6444 25.0108 23.9471 25.1519 24.2657 25.2241V19.9741C23.9761 20.0692 23.6721 20.125 23.3594 20.125V19.1875C24.0586 19.1875 24.7079 18.828 25.0958 18.2261L25.3826 17.7812H27.8907Z" fill="#242D35"/>
<path d="M16.828 17.7812H13.5782L10.7176 20.7405C9.51912 21.9803 8.85938 23.628 8.85938 25.3811V25.75C8.85938 29.3687 11.705 32.3125 15.2031 32.3125C18.7013 32.3125 21.5469 29.3687 21.5469 25.75V25.3811C21.5469 23.628 20.8871 21.9798 19.6886 20.7405L16.828 17.7812ZM15.2031 31.375V30.4375C15.48 30.4375 15.7578 30.4113 16.0269 30.3597L16.1914 31.2817C15.8679 31.3436 15.5348 31.375 15.2031 31.375ZM20.6406 25.75C20.6406 28.0455 19.2504 30.1511 17.1806 30.9897L16.8502 30.1169C18.5753 29.418 19.7344 27.663 19.7344 25.75H20.6406Z" fill="#242D35"/>
</svg>
