<svg width="24" height="24" viewBox="0 0 24 24" fill="none" xmlns="http://www.w3.org/2000/svg">
<path d="M19.779 4.29046C19.3885 3.90326 18.7553 3.90317 18.3647 4.29025C17.9741 4.67733 17.974 5.305 18.3645 5.69219C20.0519 7.3653 20.9998 9.63422 20.9998 12C20.9998 14.3658 20.0519 16.6347 18.3645 18.3078C17.974 18.695 17.9741 19.3227 18.3647 19.7098C18.7553 20.0968 19.3885 20.0967 19.779 19.7095C21.8414 17.6646 23 14.8915 23 12C23 9.1085 21.8414 6.33537 19.779 4.29046Z" fill="#242D35"/>
<path d="M16.2487 7.78984C15.8582 7.40264 15.225 7.40255 14.8344 7.78963C14.4437 8.17671 14.4436 8.80438 14.8341 9.19157C15.5841 9.93518 16.0054 10.9436 16.0054 11.995C16.0054 13.0465 15.5841 14.0549 14.8341 14.7985C14.4436 15.1857 14.4437 15.8134 14.8344 16.2005C15.225 16.5875 15.8582 16.5874 16.2487 16.2002C17.3736 15.0848 18.0056 13.5722 18.0056 11.995C18.0056 10.4179 17.3736 8.90525 16.2487 7.78984Z" fill="#242D35"/>
<path fill-rule="evenodd" clip-rule="evenodd" d="M12.001 5.06074C12.001 4.67966 11.7807 4.33233 11.4342 4.16725C11.0877 4.00217 10.6764 4.04859 10.3762 4.28664L5.64966 8.03471H2.0001C1.44776 8.03471 1 8.47854 1 9.02604V14.974C1 15.5215 1.44776 15.9653 2.0001 15.9653H5.64966L10.3762 19.7134C10.6764 19.9514 11.0877 19.9979 11.4342 19.8328C11.7807 19.6677 12.001 19.3204 12.001 18.9393V5.06074ZM6.62523 9.80013L10.0009 7.12331V16.8767L6.62523 14.1999C6.4479 14.0593 6.22757 13.9827 6.00048 13.9827H3.00019V10.0174H6.00048C6.22757 10.0174 6.4479 9.94075 6.62523 9.80013Z" fill="#242D35"/>
</svg>
