<svg width="24" height="24" viewBox="0 0 24 24" fill="none" xmlns="http://www.w3.org/2000/svg">
<path d="M8.61943 5.73911V9.64172C7.43326 8.7965 6.65881 7.36694 6.65881 5.73911C6.65881 3.14085 8.62923 1.04346 11.0702 1.04346C13.5112 1.04346 15.4816 3.14085 15.4816 5.73911C15.4816 7.36694 14.7071 8.7965 13.521 9.64172V5.73911C13.521 5.04724 13.2628 4.38371 12.8032 3.89448C12.3436 3.40526 11.7202 3.13041 11.0702 3.13041C10.4202 3.13041 9.79685 3.40526 9.33725 3.89448C8.87764 4.38371 8.61943 5.04724 8.61943 5.73911Z" fill="#242D35"/>
<path d="M13.1387 12C13.4426 12 13.7366 12.073 14.0111 12.2191L18.0108 14.3374C18.7656 14.7339 19.197 15.6104 19.0793 16.4974L18.4617 21.1617C18.3245 22.1948 17.501 22.9565 16.5207 22.9565H10.5408C10.0213 22.9565 9.52132 22.7374 9.1488 22.3513L5.21776 18.1669C4.79623 17.7078 4.79623 16.9774 5.21776 16.5182C5.48244 16.2365 5.86476 16.1113 6.22748 16.1948L9.59974 16.9461V5.73911C9.59974 4.87302 10.2565 4.17389 11.0702 4.17389C11.8839 4.17389 12.5407 4.87302 12.5407 5.73911V12H13.1387Z" fill="#242D35"/>
</svg>
