<svg width="24" height="24" viewBox="0 0 24 24" fill="none" xmlns="http://www.w3.org/2000/svg">
<g clip-path="url(#clip0_1_27001)">
<path fill-rule="evenodd" clip-rule="evenodd" d="M23.25 12C23.25 18.2132 18.2132 23.25 12 23.25C5.7868 23.25 0.75 18.2132 0.75 12C0.75 5.7868 5.7868 0.75 12 0.75C18.2132 0.75 23.25 5.7868 23.25 12ZM17.7803 8.78033C18.0732 8.48744 18.0732 8.01256 17.7803 7.71967C17.4874 7.42678 17.0126 7.42678 16.7197 7.71967L9.75 14.6893L7.28033 12.2197C6.98744 11.9268 6.51256 11.9268 6.21967 12.2197C5.92678 12.5126 5.92678 12.9874 6.21967 13.2803L9.21967 16.2803C9.51256 16.5732 9.98744 16.5732 10.2803 16.2803L17.7803 8.78033Z" fill="#242D35"/>
</g>
<defs>
<clipPath id="clip0_1_27001">
<rect width="24" height="24" fill="white"/>
</clipPath>
</defs>
</svg>
