<svg width="24" height="24" viewBox="0 0 24 24" fill="none" xmlns="http://www.w3.org/2000/svg">
<g clip-path="url(#clip0_1_26889)">
<path fill-rule="evenodd" clip-rule="evenodd" d="M20.3149 15.4038L19.4 15L20.3191 15.3939C20.3691 15.2774 20.452 15.178 20.5577 15.1081C20.663 15.0383 20.7863 15.0008 20.9125 15H21C21.7957 15 22.5587 14.6839 23.1213 14.1213C23.6839 13.5587 24 12.7957 24 12C24 11.2043 23.6839 10.4413 23.1213 9.87868C22.5587 9.31607 21.7957 9 21 9H20.8325C20.7063 8.99921 20.583 8.96167 20.4777 8.89195C20.4068 8.84498 20.3461 8.78479 20.2988 8.71507C20.2845 8.64692 20.2631 8.58027 20.2349 8.51624C20.1824 8.39742 20.1668 8.26561 20.19 8.13782C20.2129 8.01142 20.2727 7.89468 20.3619 7.80231L20.4171 7.7471C20.6959 7.46857 20.917 7.13784 21.0679 6.77382C21.2189 6.40963 21.2966 6.01925 21.2966 5.625C21.2966 5.23075 21.2189 4.84037 21.0679 4.47618C20.9171 4.11233 20.6961 3.78174 20.4175 3.50329C20.1389 3.22436 19.808 3.00308 19.4438 2.85211C19.0796 2.70113 18.6892 2.62343 18.295 2.62343C17.9008 2.62343 17.5104 2.70113 17.1462 2.85211C16.782 3.00308 16.4511 3.22436 16.1725 3.50329L16.1177 3.55811C16.0253 3.64728 15.9086 3.70713 15.7822 3.73005C15.6544 3.75322 15.5226 3.73752 15.4038 3.68508L15.3939 3.68086C15.2774 3.63092 15.178 3.54801 15.1081 3.44232C15.0383 3.33704 15.0008 3.21374 15 3.0875V3C15 2.20435 14.6839 1.44129 14.1213 0.87868C13.5587 0.316071 12.7956 0 12 0C11.2044 0 10.4413 0.316071 9.87868 0.87868C9.31607 1.44129 9 2.20435 9 3V3.1675C8.99921 3.29374 8.96167 3.41704 8.89195 3.52232C8.84498 3.59323 8.78479 3.6539 8.71507 3.70122C8.64693 3.71549 8.58027 3.73687 8.51624 3.76514C8.39742 3.81758 8.26561 3.83322 8.13782 3.81005C8.01142 3.78713 7.89468 3.72728 7.80231 3.6381L7.7475 3.58329C7.46888 3.30436 7.13802 3.08308 6.77382 2.93211C6.40963 2.78113 6.01925 2.70343 5.625 2.70343C5.23075 2.70343 4.84037 2.78113 4.47618 2.93211C4.11216 3.08301 3.78143 3.30415 3.50289 3.58289C3.22415 3.86143 3.00301 4.19216 2.85211 4.55618C2.70113 4.92037 2.62343 5.31075 2.62343 5.705C2.62343 6.09925 2.70113 6.48963 2.85211 6.85382C3.00308 7.21802 3.22436 7.54888 3.50329 7.8275L3.5581 7.88231C3.64728 7.97468 3.70713 8.09142 3.73005 8.21782C3.75322 8.34561 3.73758 8.47742 3.68514 8.59624C3.67663 8.61551 3.66874 8.63505 3.66146 8.65482C3.61644 8.77723 3.53564 8.88326 3.42955 8.95914C3.32591 9.03327 3.20283 9.07526 3.07564 9.08H3C2.20435 9.08 1.44129 9.39607 0.87868 9.95868C0.316071 10.5213 0 11.2844 0 12.08C0 12.8756 0.316071 13.6387 0.87868 14.2013C1.44129 14.7639 2.20435 15.08 3 15.08H3.1675C3.29374 15.0808 3.41704 15.1183 3.52232 15.1881C3.62801 15.258 3.71087 15.3574 3.76081 15.474L3.76514 15.4838C3.81758 15.6026 3.83322 15.7344 3.81005 15.8622C3.78713 15.9886 3.72728 16.1053 3.63811 16.1977L3.58329 16.2525C3.30436 16.5311 3.08308 16.862 2.93211 17.2262C2.78113 17.5904 2.70343 17.9808 2.70343 18.375C2.70343 18.7692 2.78113 19.1596 2.93211 19.5238C3.08308 19.888 3.30436 20.2189 3.58329 20.4975C3.86174 20.7761 4.19233 20.9971 4.55618 21.1479C4.92037 21.2989 5.31075 21.3766 5.705 21.3766C6.09925 21.3766 6.48963 21.2989 6.85382 21.1479C7.21784 20.997 7.54896 20.7755 7.8275 20.4967L7.8823 20.4419C7.97467 20.3527 8.09142 20.2929 8.21782 20.27C8.34561 20.2468 8.47742 20.2624 8.59624 20.3149C8.61551 20.3234 8.63505 20.3313 8.65482 20.3385C8.77723 20.3836 8.88326 20.4644 8.95914 20.5704C9.03327 20.6741 9.07526 20.7972 9.08 20.9244V21C9.08 21.7957 9.39607 22.5587 9.95868 23.1213C10.5213 23.6839 11.2843 24 12.08 24C12.8757 24 13.6387 23.6839 14.2013 23.1213C14.7639 22.5587 15.08 21.7957 15.08 21V20.8325C15.0808 20.7063 15.1183 20.583 15.1881 20.4777C15.258 20.372 15.3574 20.2891 15.474 20.2392L15.4838 20.2349C15.6026 20.1824 15.7344 20.1668 15.8622 20.19C15.9886 20.2129 16.1053 20.2727 16.1977 20.3619L16.2529 20.4171C16.5314 20.6959 16.8622 20.917 17.2262 21.0679C17.5904 21.2189 17.9808 21.2966 18.375 21.2966C18.7692 21.2966 19.1596 21.2189 19.5238 21.0679C19.8878 20.917 20.2186 20.6959 20.4971 20.4171C20.7759 20.1386 20.997 19.8078 21.1479 19.4438C21.2989 19.0796 21.3766 18.6892 21.3766 18.295C21.3766 17.9008 21.2989 17.5104 21.1479 17.1462C20.997 16.7822 20.7755 16.451 20.4967 16.1725L20.4419 16.1177C20.3527 16.0253 20.2929 15.9086 20.27 15.7822C20.2468 15.6544 20.2624 15.5226 20.3149 15.4038ZM12 8C9.79086 8 8 9.79086 8 12C8 14.2091 9.79086 16 12 16C14.2091 16 16 14.2091 16 12C16 9.79086 14.2091 8 12 8ZM10 12C10 10.8954 10.8954 10 12 10C13.1046 10 14 10.8954 14 12C14 13.1046 13.1046 14 12 14C10.8954 14 10 13.1046 10 12Z" fill="#242D35"/>
</g>
<defs>
<clipPath id="clip0_1_26889">
<rect width="24" height="24" fill="white"/>
</clipPath>
</defs>
</svg>
