<svg width="24" height="24" viewBox="0 0 24 24" fill="none" xmlns="http://www.w3.org/2000/svg">
<path d="M12.0632 1.5C7.01371 1.5 3 5.5624 3 10.6732C3 13.163 3.90632 15.5218 5.71896 17.2254C5.84844 17.3565 11.0274 22.0741 11.1569 22.2052C11.6748 22.5983 12.4516 22.5983 12.8401 22.2052C12.9695 22.0741 18.278 17.3565 18.278 17.2254C20.0906 15.5218 20.997 13.163 20.997 10.6732C21.1264 5.5624 17.1127 1.5 12.0632 1.5ZM12.0632 13.2941C10.639 13.2941 9.47372 12.1147 9.47372 10.6732C9.47372 9.23167 10.639 8.05226 12.0632 8.05226C13.4874 8.05226 14.6527 9.23167 14.6527 10.6732C14.6527 12.1147 13.4874 13.2941 12.0632 13.2941Z" fill="#242D35"/>
</svg>
