<svg width="24" height="24" viewBox="0 0 24 24" fill="none" xmlns="http://www.w3.org/2000/svg">
<path fill-rule="evenodd" clip-rule="evenodd" d="M11.7245 0.0583273C11.9935 -0.0602281 12.3032 0.00530382 12.5091 0.224366L17.7891 5.84138C18.0703 6.1405 18.0703 6.62548 17.7891 6.9246L13.0182 12L17.7891 17.0754C18.0703 17.3745 18.0703 17.8595 17.7891 18.1586L12.5091 23.7756C12.3032 23.9947 11.9935 24.0602 11.7245 23.9417C11.4554 23.8231 11.28 23.5438 11.28 23.234V13.8492L7.22912 18.1586C6.94794 18.4577 6.49206 18.4577 6.21088 18.1586C5.92971 17.8595 5.92971 17.3745 6.21088 17.0754L10.9818 12L6.21088 6.9246C5.92971 6.62548 5.92971 6.1405 6.21088 5.84138C6.49206 5.54225 6.94794 5.54225 7.22912 5.84138L11.28 10.1508V0.765978C11.28 0.456178 11.4554 0.176883 11.7245 0.0583273ZM12.72 13.8492L16.2618 17.617L12.72 21.3848V13.8492ZM12.72 10.1508V2.61516L16.2618 6.38299L12.72 10.1508Z" fill="#242D35"/>
</svg>
