<svg width="24" height="24" viewBox="0 0 24 24" fill="none" xmlns="http://www.w3.org/2000/svg">
<path fill-rule="evenodd" clip-rule="evenodd" d="M11.5323 4.09871C11.8821 4.26523 12.1045 4.6156 12.1045 5.00001V19C12.1045 19.3844 11.8821 19.7348 11.5323 19.9013C11.1826 20.0678 10.7674 20.021 10.4644 19.7809L5.6934 16H2.0095C1.45197 16 1 15.5523 1 15V9C1 8.44772 1.45197 8 2.0095 8H5.6934L10.4644 4.21914C10.7674 3.979 11.1826 3.93219 11.5323 4.09871ZM10.0855 7.08063L6.67815 9.78087C6.49915 9.92272 6.27675 10 6.04752 10H3.01901V14H6.04752C6.27675 14 6.49915 14.0773 6.67815 14.2191L10.0855 16.9194V7.08063Z" fill="#242D35"/>
<path d="M22.7043 8.29289C23.0986 8.68341 23.0986 9.31658 22.7043 9.7071L20.3896 12L22.7043 14.2929C23.0986 14.6834 23.0986 15.3166 22.7043 15.7071C22.3101 16.0976 21.6709 16.0976 21.2767 15.7071L18.962 13.4142L16.6473 15.7071C16.2531 16.0976 15.6139 16.0976 15.2197 15.7071C14.8254 15.3166 14.8254 14.6834 15.2197 14.2929L17.5343 12L15.2197 9.7071C14.8254 9.31658 14.8254 8.68341 15.2197 8.29289C15.6139 7.90236 16.2531 7.90236 16.6473 8.29289L18.962 10.5858L21.2767 8.29289C21.6709 7.90236 22.3101 7.90236 22.7043 8.29289Z" fill="#242D35"/>
</svg>
