<svg width="24" height="24" viewBox="0 0 24 24" fill="none" xmlns="http://www.w3.org/2000/svg">
<path fill-rule="evenodd" clip-rule="evenodd" d="M2 12C2 6.486 6.486 2 12 2C17.514 2 22 6.486 22 12C22 17.514 17.514 22 12 22C6.486 22 2 17.514 2 12ZM4 12C4 16.411 7.589 20 12 20C16.411 20 20 16.411 20 12C20 7.589 16.411 4 12 4C7.589 4 4 7.589 4 12ZM10 9.99996C10 10.374 10 11 12 11C15.48 11 16 12.88 16 14C16 15.288 14.971 16.584 13 16.915V18H11V16.92C8.661 16.553 8 14.918 8 14H10C10.011 14.143 10.159 15 12 15C13.38 15 14 14.415 14 14C14 13.676 14 13 12 13C8.52 13 8 11.12 8 9.99996C8 8.71196 9.029 7.41596 11 7.08496V6.01196H13V7.12096C14.734 7.53096 15.4 8.97396 15.4 9.99996H14.4L13.4 10.018C13.386 9.63796 13.185 8.99996 12 8.99996C10.701 8.99996 10 9.51596 10 9.99996Z" fill="#242D35"/>
</svg>
