<svg width="24" height="24" viewBox="0 0 24 24" fill="none" xmlns="http://www.w3.org/2000/svg">
<g clip-path="url(#clip0_1_27031)">
<path fill-rule="evenodd" clip-rule="evenodd" d="M1.60034 0.849976C1.18613 0.849976 0.850342 1.18576 0.850342 1.59998V4.60007C0.850342 5.01428 1.18613 5.35007 1.60034 5.35007C2.01456 5.35007 2.35034 5.01428 2.35034 4.60007V2.34998H4.60043C5.01465 2.34998 5.35043 2.01419 5.35043 1.59998C5.35043 1.18576 5.01465 0.849976 4.60043 0.849976H1.60034ZM0.999756 11.25C0.585542 11.25 0.249756 11.5858 0.249756 12C0.249756 12.4142 0.585542 12.75 0.999756 12.75H22.9998C23.414 12.75 23.7498 12.4142 23.7498 12C23.7498 11.5858 23.414 11.25 22.9998 11.25H0.999756ZM18.6497 1.59998C18.6497 1.18576 18.9854 0.849976 19.3997 0.849976H22.3998C22.814 0.849976 23.1498 1.18576 23.1498 1.59998V4.60007C23.1498 5.01428 22.814 5.35007 22.3998 5.35007C21.9855 5.35007 21.6498 5.01428 21.6498 4.60007V2.34998H19.3997C18.9854 2.34998 18.6497 2.01419 18.6497 1.59998ZM23.1498 19.3999C23.1498 18.9857 22.814 18.6499 22.3998 18.6499C21.9855 18.6499 21.6498 18.9857 21.6498 19.3999V21.65H19.3997C18.9854 21.65 18.6497 21.9858 18.6497 22.4C18.6497 22.8142 18.9854 23.15 19.3997 23.15H22.3998C22.814 23.15 23.1498 22.8142 23.1498 22.4V19.3999ZM1.60034 18.6499C2.01456 18.6499 2.35034 18.9857 2.35034 19.3999V21.65H4.60043C5.01465 21.65 5.35043 21.9858 5.35043 22.4C5.35043 22.8142 5.01465 23.15 4.60043 23.15H1.60034C1.18613 23.15 0.850342 22.8142 0.850342 22.4V19.3999C0.850342 18.9857 1.18613 18.6499 1.60034 18.6499ZM4.80029 6.30002C4.80029 5.47159 5.47187 4.80002 6.30029 4.80002H17.7003C18.5287 4.80002 19.2003 5.47159 19.2003 6.30002V9.60002H4.80029V6.30002ZM4.80029 14.4H19.2003V17.7C19.2003 18.5284 18.5287 19.2 17.7003 19.2H6.30029C5.47187 19.2 4.80029 18.5284 4.80029 17.7V14.4Z" fill="#242D35"/>
</g>
<defs>
<clipPath id="clip0_1_27031">
<rect width="24" height="24" fill="white"/>
</clipPath>
</defs>
</svg>
