<svg width="24" height="24" viewBox="0 0 24 24" fill="none" xmlns="http://www.w3.org/2000/svg">
<g clip-path="url(#clip0_1_26944)">
<path fill-rule="evenodd" clip-rule="evenodd" d="M1.70711 0.292893C1.31658 -0.0976311 0.683417 -0.0976311 0.292893 0.292893C-0.0976311 0.683417 -0.0976311 1.31658 0.292893 1.70711L6.64715 8.06137L2.23178 13.3598C1.98338 13.6579 1.92983 14.0728 2.09441 14.4242C2.25899 14.7755 2.61198 15 3 15H10.8672L10.0077 21.876C9.95266 22.3165 10.1946 22.7405 10.6018 22.9173C11.009 23.0941 11.484 22.9812 11.7682 22.6402L16.0672 17.4814L22.2929 23.7071C22.6834 24.0976 23.3166 24.0976 23.7071 23.7071C24.0976 23.3166 24.0976 22.6834 23.7071 22.2929L16.7159 15.3017C16.7107 15.2963 16.7053 15.291 16.7 15.2857L8.71593 7.30172C8.71067 7.29633 8.70533 7.29099 8.69992 7.2857L1.70711 0.292893ZM8.0672 9.48141L5.13504 13H11.5858L8.0672 9.48141ZM12.9609 14.3751L12.4153 18.7395L14.6472 16.0614L12.9609 14.3751Z" fill="#242D35"/>
<path d="M13.9927 2.12326C14.0474 1.68274 13.8052 1.25888 13.3978 1.08241C12.9905 0.905944 12.5156 1.01912 12.2317 1.36033L9.80166 4.28033C9.44838 4.70485 9.50613 5.33537 9.93065 5.68865C10.3552 6.04193 10.9857 5.98418 11.339 5.55967L11.5876 5.26091L11.4179 6.62674C11.3499 7.17481 11.739 7.6743 12.287 7.74237C12.8351 7.81045 13.3346 7.42134 13.4027 6.87326L13.9927 2.12326Z" fill="#242D35"/>
<path d="M15.6602 9C15.1079 9 14.6602 9.44771 14.6602 10C14.6602 10.5523 15.1079 11 15.6602 11H18.8623L17.8026 12.269C17.4486 12.693 17.5053 13.3236 17.9292 13.6776C18.3531 14.0316 18.9837 13.9749 19.3377 13.551L21.7677 10.641C22.0166 10.343 22.0704 9.92794 21.906 9.5763C21.7415 9.22467 21.3884 9 21.0002 9H15.6602Z" fill="#242D35"/>
</g>
<defs>
<clipPath id="clip0_1_26944">
<rect width="24" height="24" fill="white"/>
</clipPath>
</defs>
</svg>
