<svg width="44" height="44" viewBox="0 0 44 44" fill="none" xmlns="http://www.w3.org/2000/svg">
<path d="M0 12C0 5.37258 5.37258 0 12 0H32C38.6274 0 44 5.37258 44 12V32C44 38.6274 38.6274 44 32 44H12C5.37258 44 0 38.6274 0 32V12Z" fill="#EBEEF0"/>
<g clip-path="url(#clip0_1_27110)">
<path d="M33.9136 31.3864L33.3173 17.0738C33.2586 15.665 32.0636 14.5188 30.6535 14.5188H28.7208V12.9625C28.7208 11.329 27.3918 10 25.7582 10C24.1247 10 22.7958 11.329 22.7958 12.9625V14.5188H20.8629C19.6859 14.5188 18.6642 15.2005 18.3293 16.125H23.1224C24.1653 16.125 25.1633 16.528 25.9324 17.2597C26.7016 17.9914 27.1539 18.968 27.2059 20.0095L27.771 31.3112C27.8207 32.3047 27.5054 33.2493 26.881 34H31.4067C32.1009 34 32.7452 33.7269 33.2208 33.231C33.6964 32.7351 33.9425 32.08 33.9136 31.3864ZM27.3145 14.5188H24.202V12.9625C24.202 12.1044 24.9001 11.4062 25.7582 11.4062C26.6164 11.4062 27.3145 12.1044 27.3145 12.9625V14.5188Z" fill="#242D35"/>
<path d="M25.8014 20.0798C25.7312 18.6745 24.5294 17.5312 23.1224 17.5312H13.3317C11.9246 17.5312 10.7228 18.6745 10.6526 20.0797L10.0875 31.3814C10.0528 32.0758 10.2941 32.7321 10.7671 33.2292C11.24 33.7262 11.8833 34 12.5786 34H23.8755C24.5707 34 25.2141 33.7262 25.6869 33.2292C26.1599 32.7321 26.4012 32.0758 26.3665 31.3813L25.8014 20.0798ZM21.1895 22.7531C21.1895 24.3866 19.8605 25.7156 18.227 25.7156C16.5935 25.7156 15.2646 24.3866 15.2646 22.7531V20.4938C15.2646 20.1054 15.5793 19.7906 15.9677 19.7906C16.356 19.7906 16.6708 20.1054 16.6708 20.4938V22.7531C16.6708 23.6112 17.3689 24.3093 18.227 24.3093C19.0852 24.3093 19.7832 23.6112 19.7832 22.7531V20.4938C19.7832 20.1054 20.0981 19.7906 20.4864 19.7906C20.8747 19.7906 21.1895 20.1054 21.1895 20.4938V22.7531Z" fill="#242D35"/>
</g>
<defs>
<clipPath id="clip0_1_27110">
<rect width="24" height="24" fill="white" transform="translate(10 10)"/>
</clipPath>
</defs>
</svg>
