<svg width="24" height="24" viewBox="0 0 24 24" fill="none" xmlns="http://www.w3.org/2000/svg">
<path fill-rule="evenodd" clip-rule="evenodd" d="M21 12C21 16.9706 16.9706 21 12 21C7.02944 21 3 16.9706 3 12C3 7.02944 7.02944 3 12 3C16.9706 3 21 7.02944 21 12ZM23 12C23 18.0751 18.0751 23 12 23C5.92487 23 1 18.0751 1 12C1 5.92487 5.92487 1 12 1C18.0751 1 23 5.92487 23 12ZM17.6724 8.9205C18.1092 8.48116 18.1092 7.76884 17.6724 7.3295C17.2355 6.89016 16.5272 6.89016 16.0904 7.3295L10.1695 13.284L7.90965 11.0113C7.47279 10.572 6.7645 10.572 6.32764 11.0113C5.89079 11.4507 5.89079 12.163 6.32764 12.6023L9.37849 15.6705C9.81535 16.1098 10.5236 16.1098 10.9605 15.6705L17.6724 8.9205Z" fill="#242D35"/>
</svg>
