<svg width="24" height="24" viewBox="0 0 24 24" fill="none" xmlns="http://www.w3.org/2000/svg">
<path d="M15.3085 14.1867L13.1676 16.297C12.0515 15.6236 11.0147 14.8266 10.0767 13.9213C9.17321 12.982 8.37682 11.9452 7.70224 10.83L9.81039 8.68878C9.937 8.55931 10.0225 8.39528 10.0562 8.21732C10.0898 8.03937 10.0701 7.85543 9.99948 7.68866L7.80224 2.55528C7.71561 2.35361 7.55956 2.18968 7.3624 2.09326C7.16525 1.99684 6.94006 1.97431 6.72771 2.02976L2.68777 3.09626C2.48592 3.1481 2.30779 3.26727 2.18283 3.43407C2.05786 3.60088 1.99355 3.80533 2.00051 4.01365C2.25722 8.70566 4.20798 13.145 7.49043 16.507C10.8527 19.7913 15.2929 21.743 19.9857 21.9996C20.194 22.0061 20.3983 21.9416 20.5651 21.8167C20.7319 21.6918 20.8514 21.5139 20.9039 21.3122L21.9693 17.2753C22.0258 17.0625 22.0039 16.8365 21.9076 16.6386C21.8113 16.4406 21.647 16.2839 21.4448 16.197L16.3166 13.9985C16.149 13.9259 15.9634 13.905 15.7838 13.9386C15.6042 13.9721 15.4387 14.0585 15.3085 14.1867Z" fill="#242D35"/>
</svg>
