<svg width="24" height="24" viewBox="0 0 24 24" fill="none" xmlns="http://www.w3.org/2000/svg">
<g clip-path="url(#clip0_1_27033)">
<path fill-rule="evenodd" clip-rule="evenodd" d="M24 12C24 18.6274 18.6274 24 12 24C5.37258 24 0 18.6274 0 12C0 5.37258 5.37258 0 12 0C18.6274 0 24 5.37258 24 12ZM12 14C12.7364 14 13.3334 13.5758 13.3334 13.0526L14 6.49999C14 5.55264 13.3334 4.99999 12 4.99999C10.6667 4.99999 10 5.55264 10 6.49999L10.6667 13.0526C10.6667 13.5758 11.2637 14 12 14ZM11.9901 19C10.891 19 10 18.1046 10 17C10 15.8954 10.891 15 11.9901 15H12.01C13.1091 15 14 15.8954 14 17C14 18.1046 13.1091 19 12.01 19H11.9901Z" fill="#242D35"/>
</g>
<defs>
<clipPath id="clip0_1_27033">
<rect width="24" height="24" fill="white"/>
</clipPath>
</defs>
</svg>
