<svg width="24" height="24" viewBox="0 0 24 24" fill="none" xmlns="http://www.w3.org/2000/svg">
<path fill-rule="evenodd" clip-rule="evenodd" d="M12 1C9.87827 1 7.84344 1.84285 6.34315 3.34315C4.84285 4.84344 4 6.87827 4 9V11.9939C3.97138 14.2833 3.3308 16.5235 2.14464 18.482C1.95763 18.7908 1.95156 19.1764 2.12878 19.4909C2.306 19.8054 2.63899 20 3 20H21C21.361 20 21.694 19.8054 21.8712 19.4909C22.0484 19.1764 22.0424 18.7908 21.8554 18.482C20.6692 16.5235 20.0286 14.2833 20 11.9939V9C20 6.87827 19.1571 4.84344 17.6569 3.34315C16.1566 1.84285 14.1217 1 12 1ZM7.75736 4.75736C8.88258 3.63214 10.4087 3 12 3C13.5913 3 15.1174 3.63214 16.2426 4.75736C17.3679 5.88258 18 7.4087 18 9L17.9999 12L18.0001 12.012C18.025 14.086 18.4845 16.125 19.3415 18H4.65852C5.51551 16.125 5.97503 14.086 6 12.012V9C6 7.4087 6.63214 5.88258 7.75736 4.75736Z" fill="#242D35"/>
<path d="M10.1645 22.4497C9.62734 22.0916 9.22059 21.5852 9 21H15C14.7794 21.5852 14.3727 22.0916 13.8355 22.4497C13.2984 22.8078 12.6573 23 12 23C11.3427 23 10.7016 22.8078 10.1645 22.4497Z" fill="#242D35"/>
<path fill-rule="evenodd" clip-rule="evenodd" d="M19.5 9C21.9853 9 24 6.98528 24 4.5C24 2.01472 21.9853 0 19.5 0C17.0147 0 15 2.01472 15 4.5C15 6.98528 17.0147 9 19.5 9Z" fill="#EF4E4E"/>
</svg>
