<svg width="24" height="24" viewBox="0 0 24 24" fill="none" xmlns="http://www.w3.org/2000/svg">
<path d="M21.9346 1.00894C22.4819 1.08118 22.8654 1.57161 22.7912 2.10435L21.9912 7.84767C21.9171 8.37958 21.4147 8.75272 20.8681 8.68178L14.8681 7.90303C14.3206 7.83197 13.936 7.34237 14.009 6.80947C14.082 6.27657 14.5849 5.90216 15.1324 5.97322L18.983 6.47299C17.357 4.48739 14.8297 3.23909 12.0001 3.23909C7.05233 3.23909 3.00001 7.18376 3.00001 12.0001C3.00001 12.5377 2.5523 12.9735 2.00001 12.9735C1.44772 12.9735 1 12.5377 1 12.0001C1 6.10852 5.94775 1.2922 12.0001 1.2922C15.342 1.2922 18.3595 2.72579 20.3637 5.04175L20.8093 1.84276C20.8835 1.31002 21.3874 0.936706 21.9346 1.00894Z" fill="#242D35"/>
<path d="M23 12.0001C23 11.4625 22.5523 11.0266 22 11.0266C21.4477 11.0266 21 11.4625 21 12.0001C21 16.8164 16.9477 20.7611 11.9999 20.7611C9.1702 20.7611 6.64282 19.5127 5.01682 17.5269L8.86821 18.0268C9.41565 18.0978 9.91862 17.7234 9.99161 17.1905C10.0646 16.6576 9.67998 16.168 9.13254 16.097L3.13249 15.3182C2.58591 15.2473 2.08348 15.6204 2.00939 16.1523L1.20938 21.8956C1.13518 22.4284 1.51868 22.9188 2.06596 22.9911C2.61324 23.0633 3.11705 22.69 3.19126 22.1572L3.63676 18.959C5.64097 21.2746 8.65823 22.708 11.9999 22.708C18.0522 22.708 23 17.8916 23 12.0001Z" fill="#242D35"/>
</svg>
