<svg width="24" height="24" viewBox="0 0 24 24" fill="none" xmlns="http://www.w3.org/2000/svg">
<path fill-rule="evenodd" clip-rule="evenodd" d="M12.0005 8.25C9.32133 8.25 7.14944 10.3766 7.14944 13C7.14944 15.6234 9.32133 17.75 12.0005 17.75C14.6797 17.75 16.8516 15.6234 16.8516 13C16.8516 10.3766 14.6797 8.25 12.0005 8.25ZM8.68135 13C8.68135 11.2051 10.1674 9.75 12.0005 9.75C13.8336 9.75 15.3196 11.2051 15.3196 13C15.3196 14.7949 13.8336 16.25 12.0005 16.25C10.1674 16.25 8.68135 14.7949 8.68135 13Z" fill="#242D35"/>
<path fill-rule="evenodd" clip-rule="evenodd" d="M8.93617 2.25C8.68007 2.25 8.44091 2.37533 8.29885 2.58397L6.48369 5.25H2.80851C2.06365 5.25 1.34929 5.53973 0.822594 6.05546C0.295896 6.57118 0 7.27065 0 8V19C0 19.7293 0.295896 20.4288 0.822594 20.9445C1.34929 21.4603 2.06365 21.75 2.80851 21.75H21.1915C21.9364 21.75 22.6507 21.4603 23.1774 20.9445C23.7041 20.4288 24 19.7293 24 19V8C24 7.27065 23.7041 6.57118 23.1774 6.05546C22.6507 5.53973 21.9364 5.25 21.1915 5.25H17.5163L15.7011 2.58397C15.5591 2.37533 15.3199 2.25 15.0638 2.25H8.93617ZM7.53093 6.41603L9.3461 3.75H14.6539L16.4691 6.41603C16.6111 6.62467 16.8503 6.75 17.1064 6.75H21.1915C21.5301 6.75 21.8548 6.8817 22.0942 7.11612C22.3336 7.35054 22.4681 7.66848 22.4681 8V19C22.4681 19.3315 22.3336 19.6495 22.0942 19.8839C21.8548 20.1183 21.5301 20.25 21.1915 20.25H2.80851C2.46994 20.25 2.14523 20.1183 1.90582 19.8839C1.66641 19.6495 1.53191 19.3315 1.53191 19V8C1.53191 7.66848 1.66641 7.35054 1.90582 7.11612C2.14523 6.8817 2.46994 6.75 2.80851 6.75H6.89362C7.14972 6.75 7.38887 6.62467 7.53093 6.41603Z" fill="#242D35"/>
</svg>
