<svg width="24" height="24" viewBox="0 0 24 24" fill="none" xmlns="http://www.w3.org/2000/svg">
<path fill-rule="evenodd" clip-rule="evenodd" d="M6.46681 1.06346C6.91138 0.945929 7.38337 0.992044 7.79678 1.1934C8.2102 1.39475 8.53752 1.73795 8.71911 2.16044L10.9199 7.29065C11.0695 7.64058 11.1116 8.02709 11.0409 8.40103C10.9702 8.77497 10.7899 9.11944 10.5229 9.3906L8.97155 10.9649C9.50859 11.7663 10.1147 12.5197 10.7832 13.2166C11.4783 13.8856 12.2307 14.4916 13.0317 15.0276L14.6061 13.4744C14.8782 13.2064 15.2249 13.0252 15.6003 12.9551C15.975 12.8852 16.3621 12.9287 16.712 13.0798L16.714 13.0807L21.8404 15.2788C22.263 15.4605 22.6062 15.7881 22.8073 16.2019C23.0081 16.6151 23.0539 17.0868 22.9362 17.531M22.9358 17.5325L21.872 21.5606L21.8709 21.5647C21.762 21.9854 21.5131 22.3565 21.1653 22.6172C20.8163 22.8786 20.3886 23.0132 19.9528 22.9985L19.9319 22.9976C14.997 22.7281 10.3277 20.6762 6.79174 17.2231L6.77486 17.2062C3.32311 13.6705 1.27178 9.00215 1.00187 4.06812C1.0014 4.0595 1.00104 4.05087 1.00079 4.04223C0.988306 3.60781 1.12362 3.18201 1.3846 2.83452C1.645 2.48779 2.01512 2.23951 2.43462 2.13007L6.46681 1.06346M6.90954 3.0153L3.004 4.0484C3.26698 8.46165 5.11012 12.6337 8.19757 15.8003C11.3648 18.8893 15.5382 20.7331 19.9527 20.9954L20.9846 17.0881L15.9703 14.9381L13.8696 17.0105C13.5442 17.3315 13.0425 17.391 12.651 17.155C11.4703 16.443 10.3734 15.6004 9.38111 14.6431C9.37209 14.6344 9.36324 14.6255 9.35456 14.6165C8.39947 13.6232 7.55768 12.5268 6.84467 11.3476C6.60797 10.9561 6.66705 10.4539 6.98814 10.1281L9.05921 8.0264L6.90954 3.0153Z" fill="#242D35"/>
</svg>
