<svg width="24" height="24" viewBox="0 0 24 24" fill="none" xmlns="http://www.w3.org/2000/svg">
<path d="M19.779 4.29021C19.3885 3.90302 18.7553 3.90292 18.3647 4.29C17.9741 4.67708 17.974 5.30475 18.3645 5.69195C20.0519 7.36506 20.9998 9.63398 20.9998 11.9998C20.9998 14.3655 20.0519 16.6345 18.3645 18.3076C17.974 18.6948 17.9741 19.3224 18.3647 19.7095C18.7553 20.0966 19.3885 20.0965 19.779 19.7093C21.8414 17.6644 23 14.8913 23 11.9998C23 9.10825 21.8414 6.33513 19.779 4.29021Z" fill="#242D35"/>
<path d="M16.2487 7.7896C15.8582 7.4024 15.225 7.4023 14.8344 7.78938C14.4437 8.17646 14.4436 8.80413 14.8341 9.19133C15.5841 9.93493 16.0054 10.9433 16.0054 11.9948C16.0054 13.0463 15.5841 14.0547 14.8341 14.7983C14.4436 15.1855 14.4437 15.8131 14.8344 16.2002C15.225 16.5873 15.8582 16.5872 16.2487 16.2C17.3736 15.0846 18.0056 13.572 18.0056 11.9948C18.0056 10.4176 17.3736 8.905 16.2487 7.7896Z" fill="#242D35"/>
<path fill-rule="evenodd" clip-rule="evenodd" d="M12.001 5.06049C12.001 4.67942 11.7807 4.33208 11.4342 4.16701C11.0877 4.00193 10.6764 4.04834 10.3762 4.2864L5.64966 8.03447H2.0001C1.44776 8.03447 1 8.4783 1 9.02579V14.9738C1 15.5212 1.44776 15.9651 2.0001 15.9651H5.64966L10.3762 19.7131C10.6764 19.9512 11.0877 19.9976 11.4342 19.8325C11.7807 19.6675 12.001 19.3201 12.001 18.9391V5.06049ZM6.62523 9.79989L10.0009 7.12307V16.8765L6.62523 14.1997C6.4479 14.059 6.22757 13.9824 6.00048 13.9824H3.00019V10.0171H6.00048C6.22757 10.0171 6.4479 9.94051 6.62523 9.79989Z" fill="#242D35"/>
</svg>
