<svg width="24" height="24" viewBox="0 0 24 24" fill="none" xmlns="http://www.w3.org/2000/svg">
<path fill-rule="evenodd" clip-rule="evenodd" d="M5.99999 3C5.58578 3 5.25 3.34538 5.25 3.77143V20.2286C5.25 20.6546 5.58578 21 5.99999 21H9.99991C10.4141 21 10.7499 20.6546 10.7499 20.2286V3.77143C10.7499 3.34538 10.4141 3 9.99991 3H5.99999ZM6.74997 19.4571V4.54286H9.24993V19.4571H6.74997Z" fill="#242D35"/>
<path fill-rule="evenodd" clip-rule="evenodd" d="M14.0001 3C13.5859 3 13.2501 3.34538 13.2501 3.77143V20.2286C13.2501 20.6546 13.5859 21 14.0001 21H18C18.4142 21 18.75 20.6546 18.75 20.2286V3.77143C18.75 3.34538 18.4142 3 18 3H14.0001ZM14.7501 19.4571V4.54286H17.25V19.4571H14.7501Z" fill="#242D35"/>
</svg>
