<svg width="24" height="24" viewBox="0 0 24 24" fill="none" xmlns="http://www.w3.org/2000/svg">
<path d="M9.95745 11.25C9.53442 11.25 9.19149 11.5858 9.19149 12C9.19149 12.4142 9.53442 12.75 9.95745 12.75H14.0426C14.4656 12.75 14.8085 12.4142 14.8085 12C14.8085 11.5858 14.4656 11.25 14.0426 11.25H9.95745Z" fill="#242D35"/>
<path fill-rule="evenodd" clip-rule="evenodd" d="M0 3C0 2.58579 0.342931 2.25 0.765957 2.25H23.234C23.6571 2.25 24 2.58579 24 3V8.00001C24 8.41422 23.6571 8.75001 23.234 8.75001H21.9577V21C21.9577 21.4142 21.6148 21.75 21.1917 21.75H2.80876C2.38573 21.75 2.0428 21.4142 2.0428 21V8.75001H0.765957C0.342931 8.75001 0 8.41422 0 8.00001V3ZM21.1917 7.24998L21.1987 7.25001H22.4681V3.75H1.53191V7.25001H2.80175L2.80876 7.24998L2.81577 7.25001H21.1847L21.1917 7.24998ZM20.4258 8.75001H3.57472V20.25H20.4258V8.75001Z" fill="#242D35"/>
</svg>
