<svg width="24" height="24" viewBox="0 0 24 24" fill="none" xmlns="http://www.w3.org/2000/svg">
<path fill-rule="evenodd" clip-rule="evenodd" d="M2.87868 2.87868C3.44129 2.31607 4.20435 2 5 2H7L6 2V8C6 8.55228 6.44772 9 7 9H15C15.5523 9 16 8.55228 16 8C16 7.44772 15.5523 7 15 7H8V2L7 2H16C16.2652 2 16.5196 2.10536 16.7071 2.29289L21.7071 7.29289C21.8946 7.48043 22 7.73478 22 8V19C22 19.7957 21.6839 20.5587 21.1213 21.1213C20.5587 21.6839 19.7957 22 19 22H18V13C18 12.4477 17.5523 12 17 12H7C6.44772 12 6 12.4477 6 13V22H5C4.20435 22 3.44129 21.6839 2.87868 21.1213C2.31607 20.5587 2 19.7957 2 19V5C2 4.20435 2.31607 3.44129 2.87868 2.87868ZM16 14V22H8V14H16Z" fill="#242D35"/>
</svg>
