<svg width="24" height="24" viewBox="0 0 24 24" fill="none" xmlns="http://www.w3.org/2000/svg">
<path fill-rule="evenodd" clip-rule="evenodd" d="M11.5879 0.0761495C11.9903 -0.0786311 12.4535 0.00692443 12.7615 0.292922L18.6846 5.79291C19.1051 6.18343 19.1051 6.8166 18.6846 7.20712L13.523 12L18.6846 16.7929C19.1051 17.1834 19.1051 17.8166 18.6846 18.2071L12.7615 23.7071C12.4535 23.9931 11.9903 24.0786 11.5879 23.9239C11.1855 23.7691 10.9231 23.4044 10.9231 23V14.4142L6.83842 18.2071C6.41786 18.5976 5.73599 18.5976 5.31542 18.2071C4.89486 17.8166 4.89486 17.1834 5.31542 16.7929L10.477 12L5.31542 7.20712C4.89486 6.8166 4.89486 6.18343 5.31542 5.79291C5.73599 5.40239 6.41786 5.40239 6.83842 5.79291L10.9231 9.58579V1.00003C10.9231 0.595566 11.1855 0.23093 11.5879 0.0761495ZM13.0769 14.4142L16.4001 17.5L13.0769 20.5858V14.4142ZM13.0769 9.58579V3.41423L16.4001 6.50001L13.0769 9.58579Z" fill="#242D35"/>
</svg>
