<svg width="24" height="24" viewBox="0 0 24 24" fill="none" xmlns="http://www.w3.org/2000/svg">
<path d="M11 0V5L10 1C10 1 5 2.19922 5 7C5 7 4 7.19922 4 9H20C20 7.19922 19 7 19 7C19 2.19922 14 1 14 1L13 5V0H11ZM5 10C5 13.8438 8.15625 17 12 17C15.8438 17 19 13.8438 19 10H17C17 12.7539 14.7539 15 12 15C9.24609 15 7 12.7539 7 10H5ZM7.40625 17.4062C4.40625 18.207 2.10156 20 1 24H23C21.8984 20 19.5938 18.207 16.5938 17.4062C15.1953 18.1055 13.6016 18.5938 12 18.5938C10.3008 18.5938 8.80469 18.207 7.40625 17.4062Z" fill="#242D35"/>
</svg>
