<svg width="24" height="24" viewBox="0 0 24 24" fill="none" xmlns="http://www.w3.org/2000/svg">
<path d="M19 0.999756C19.5523 0.999756 20 1.44747 20 1.99976V3.99976H22C22.5523 3.99976 23 4.44747 23 4.99976C23 5.55204 22.5523 5.99976 22 5.99976H20V7.99976C20 8.55204 19.5523 8.99976 19 8.99976C18.4477 8.99976 18 8.55204 18 7.99976V5.99976H16C15.4477 5.99976 15 5.55204 15 4.99976C15 4.44747 15.4477 3.99976 16 3.99976H18V1.99976C18 1.44747 18.4477 0.999756 19 0.999756Z" fill="#242D35"/>
<path fill-rule="evenodd" clip-rule="evenodd" d="M14 8.49976C14 10.985 11.9853 12.9998 9.5 12.9998C7.01472 12.9998 5 10.985 5 8.49976C5 6.01447 7.01472 3.99976 9.5 3.99976C11.9853 3.99976 14 6.01447 14 8.49976ZM12 8.49976C12 9.88047 10.8807 10.9998 9.5 10.9998C8.11929 10.9998 7 9.88047 7 8.49976C7 7.11904 8.11929 5.99976 9.5 5.99976C10.8807 5.99976 12 7.11904 12 8.49976Z" fill="#242D35"/>
<path d="M6 14.9998C3.23858 14.9998 1 17.2383 1 19.9998V20.9998C1 21.552 1.44772 21.9998 2 21.9998C2.55228 21.9998 3 21.552 3 20.9998V19.9998C3 18.3429 4.34315 16.9998 6 16.9998H13C14.6569 16.9998 16 18.3429 16 19.9998V20.9998C16 21.552 16.4477 21.9998 17 21.9998C17.5523 21.9998 18 21.552 18 20.9998V19.9998C18 17.2383 15.7614 14.9998 13 14.9998H6Z" fill="#242D35"/>
</svg>
