<svg width="24" height="24" viewBox="0 0 24 24" fill="none" xmlns="http://www.w3.org/2000/svg">
<path fill-rule="evenodd" clip-rule="evenodd" d="M9 2.25C8.66565 2.25 8.35342 2.41292 8.16795 2.68417L6.46482 5.175H3C2.20435 5.175 1.44129 5.48317 0.87868 6.03171C0.316071 6.58026 0 7.32424 0 8.1V18.825C0 19.6008 0.316071 20.3447 0.87868 20.8933C1.44129 21.4418 2.20435 21.75 3 21.75H21C21.7957 21.75 22.5587 21.4418 23.1213 20.8933C23.6839 20.3447 24 19.6008 24 18.825V8.1C24 7.32424 23.6839 6.58026 23.1213 6.03171C22.5587 5.48317 21.7957 5.175 21 5.175H17.5352L15.8321 2.68417C15.6466 2.41292 15.3344 2.25 15 2.25H9ZM9 12.975C9 11.3596 10.3431 10.05 12 10.05C13.6569 10.05 15 11.3596 15 12.975C15 14.5904 13.6569 15.9 12 15.9C10.3431 15.9 9 14.5904 9 12.975ZM12 8.1C9.23858 8.1 7 10.2826 7 12.975C7 15.6674 9.23858 17.85 12 17.85C14.7614 17.85 17 15.6674 17 12.975C17 10.2826 14.7614 8.1 12 8.1Z" fill="#242D35"/>
</svg>
