<svg width="24" height="24" viewBox="0 0 24 24" fill="none" xmlns="http://www.w3.org/2000/svg">
<path fill-rule="evenodd" clip-rule="evenodd" d="M8.25322 2.11978C8.49513 1.96897 8.79013 1.96004 9.03935 2.09598L15.3071 5.51476L20.7532 2.11978C21.0111 1.959 21.328 1.96015 21.5849 2.12281C21.8419 2.28547 22 2.58503 22 2.90909V17.4545C22 17.7808 21.8398 18.082 21.5801 18.2439L15.7468 21.8802C15.5049 22.031 15.2099 22.04 14.9607 21.904L8.69289 18.4852L3.24678 21.8802C2.98886 22.041 2.67199 22.0399 2.41506 21.8772C2.15813 21.7145 2 21.415 2 21.0909V6.54546C2 6.21922 2.16024 5.918 2.41988 5.75614L8.25322 2.11978ZM14.5 19.62L9.49967 16.8925V4.37985L14.5 7.1073V19.62Z" fill="#242D35"/>
</svg>
