<svg width="24" height="24" viewBox="0 0 24 24" fill="none" xmlns="http://www.w3.org/2000/svg">
<path fill-rule="evenodd" clip-rule="evenodd" d="M21 8.82843C21 8.298 20.7893 7.78929 20.4142 7.41421L14.5858 1.58579C14.2107 1.21071 13.702 1 13.1716 1H5.25C4.65326 1 4.08097 1.23178 3.65901 1.64437C3.23705 2.05695 3 2.61652 3 3.2V20.8C3 21.3835 3.23705 21.9431 3.65901 22.3556C4.08097 22.7682 4.65326 23 5.25 23H18.75C19.3467 23 19.919 22.7682 20.341 22.3556C20.7629 21.9431 21 21.3835 21 20.8V8.82843ZM14 3.82843V8H18.1716L14 3.82843ZM19 10H13C12.4477 10 12 9.55228 12 9V3H5.25C5.16937 3 5.10085 3.03174 5.05725 3.07438C5.01516 3.11553 5 3.16164 5 3.2V20.8C5 20.8384 5.01516 20.8845 5.05725 20.9256C5.10086 20.9683 5.16938 21 5.25 21H18.75C18.8306 21 18.8991 20.9683 18.9428 20.9256C18.9848 20.8845 19 20.8384 19 20.8V10Z" fill="#242D35"/>
</svg>
