<svg width="44" height="44" viewBox="0 0 44 44" fill="none" xmlns="http://www.w3.org/2000/svg">
<rect width="44" height="44" rx="12" fill="#EBEEF0"/>
<path d="M22 17.1235C16.6365 17.1235 12.4777 22.7936 12.4777 27.6713C12.4777 33.3442 17.9127 34 22 34C26.0873 34 31.5223 33.3442 31.5223 27.6713C31.5223 22.7936 27.3634 17.1235 22 17.1235ZM22.7525 28.9506C22.7459 28.9529 22.739 28.9518 22.7324 28.954V29.7808C22.7324 30.1695 22.4048 30.484 22 30.484C21.5951 30.484 21.2675 30.1695 21.2675 29.7808V28.9492C20.7846 28.7928 20.3221 28.496 19.927 28.0441C19.6667 27.7468 19.7067 27.3032 20.0172 27.0532C20.3262 26.8033 20.7883 26.8411 21.0487 27.139C22.4929 28.795 23.4678 26.2649 22 26.2649C20.7883 26.2649 19.8026 25.3186 19.8026 24.1553C19.8026 23.3138 20.3044 22.5115 21.2676 22.1824V21.3425C21.2676 20.9538 21.5952 20.6393 22 20.6393C22.4049 20.6393 22.7325 20.9539 22.7325 21.3425V22.1847C23.1117 22.3073 23.4815 22.5022 23.8112 22.8086C24.1016 23.0791 24.1102 23.5242 23.8284 23.803C23.5466 24.0825 23.083 24.09 22.7926 23.8195C21.4451 22.5699 20.535 24.8585 22.0001 24.8585C23.2118 24.8585 24.1975 25.8048 24.1975 26.968C24.1974 27.8512 23.6166 28.6485 22.7525 28.9506Z" fill="#242D35"/>
<path d="M26.1775 10.5665C23.4736 9.81116 20.5265 9.81116 17.8225 10.5665C17.3688 10.6926 17.1522 11.1983 17.3962 11.5979L18.5041 13.502C20.4306 12.7661 23.288 12.6562 25.4956 13.5023L26.6038 11.5979C26.8477 11.1983 26.6311 10.6926 26.1775 10.5665Z" fill="#242D35"/>
<path d="M25.401 15.0346C24.0305 14.1077 20.0101 14.0691 18.5905 15.039C17.9819 15.4514 17.6579 16.0994 17.6642 16.7763C19.0707 16.061 20.7199 15.7172 22 15.7172C23.5591 15.7172 25.0196 16.1069 26.3359 16.7763C26.342 16.1242 26.0401 15.4673 25.401 15.0346Z" fill="#242D35"/>
</svg>
