<svg width="24" height="24" viewBox="0 0 24 24" fill="none" xmlns="http://www.w3.org/2000/svg">
<path fill-rule="evenodd" clip-rule="evenodd" d="M11.9998 7.99976C9.79068 7.99976 7.99982 9.79062 7.99982 11.9998C7.99982 14.2089 9.79068 15.9998 11.9998 15.9998C14.209 15.9998 15.9998 14.2089 15.9998 11.9998C15.9998 9.79062 14.209 7.99976 11.9998 7.99976ZM9.99982 11.9998C9.99982 10.8952 10.8953 9.99976 11.9998 9.99976C13.1044 9.99976 13.9998 10.8952 13.9998 11.9998C13.9998 13.1043 13.1044 13.9998 11.9998 13.9998C10.8953 13.9998 9.99982 13.1043 9.99982 11.9998Z" fill="#242D35"/>
<path fill-rule="evenodd" clip-rule="evenodd" d="M22.8677 11.503C22.8677 11.503 22.8681 11.5036 21.9998 11.9998C22.8681 12.4959 22.8677 12.4965 22.8677 12.4965L22.8661 12.4994L22.8626 12.5054L22.8512 12.5249C22.8417 12.5412 22.8282 12.564 22.8109 12.5929C22.7763 12.6505 22.7263 12.7325 22.6613 12.8352C22.5314 13.0405 22.3413 13.3297 22.0948 13.6747C21.6031 14.3632 20.8805 15.2833 19.9569 16.2069C18.1351 18.0286 15.3931 19.9998 11.9998 19.9998C8.60658 19.9998 5.86449 18.0286 4.04271 16.2069C3.11913 15.2833 2.39657 14.3632 1.90484 13.6747C1.65835 13.3297 1.46824 13.0405 1.33834 12.8352C1.27334 12.7325 1.22331 12.6505 1.18871 12.5929C1.17141 12.564 1.15796 12.5412 1.14842 12.5249L1.13705 12.5054L1.13357 12.4994L1.13239 12.4973C1.13239 12.4973 1.13158 12.4959 1.99982 11.9998C1.13158 11.5036 1.13194 11.503 1.13194 11.503L1.13357 11.5001L1.13705 11.4941L1.14842 11.4746C1.15796 11.4583 1.17141 11.4355 1.18871 11.4066C1.22331 11.349 1.27334 11.2671 1.33834 11.1643C1.46824 10.959 1.65835 10.6698 1.90484 10.3248C2.39657 9.63635 3.11913 8.71623 4.04271 7.79265C5.86449 5.97087 8.60658 3.99976 11.9998 3.99976C15.3931 3.99976 18.1351 5.97087 19.9569 7.79265C20.8805 8.71623 21.6031 9.63635 22.0948 10.3248C22.3413 10.6698 22.5314 10.959 22.6613 11.1643C22.7263 11.2671 22.7763 11.349 22.8109 11.4066C22.8282 11.4355 22.8417 11.4583 22.8512 11.4746L22.8626 11.4941L22.8661 11.5001L22.8677 11.503ZM3.5323 12.5123C3.39395 12.3186 3.27612 12.1456 3.1798 11.9998C3.27612 11.8539 3.39395 11.6809 3.5323 11.4872C3.97808 10.8632 4.63051 10.0333 5.45693 9.20686C7.13515 7.52864 9.39306 5.99976 11.9998 5.99976C14.6066 5.99976 16.8645 7.52864 18.5427 9.20686C19.3691 10.0333 20.0216 10.8632 20.4673 11.4872C20.6057 11.6809 20.7235 11.8539 20.8198 11.9998C20.7235 12.1456 20.6057 12.3186 20.4673 12.5123C20.0216 13.1363 19.3691 13.9662 18.5427 14.7926C16.8645 16.4709 14.6066 17.9998 11.9998 17.9998C9.39306 17.9998 7.13515 16.4709 5.45693 14.7926C4.63051 13.9662 3.97808 13.1363 3.5323 12.5123Z" fill="#242D35"/>
<path d="M21.9998 11.9998L22.8677 11.503C23.0434 11.8104 23.0434 12.1891 22.8677 12.4965L21.9998 11.9998Z" fill="#242D35"/>
<path d="M1.13194 11.503L1.99982 11.9998L1.13158 12.4959C0.955901 12.1885 0.956261 11.8104 1.13194 11.503Z" fill="#242D35"/>
</svg>
