<svg width="44" height="44" viewBox="0 0 44 44" fill="none" xmlns="http://www.w3.org/2000/svg">
<path d="M0 12C0 5.37258 5.37258 0 12 0H32C38.6274 0 44 5.37258 44 12V32C44 38.6274 38.6274 44 32 44H12C5.37258 44 0 38.6274 0 32V12Z" fill="#EBEEF0"/>
<g clip-path="url(#clip0_1_27103)">
<path d="M16.8552 27.1452C16.1677 26.7509 15.7031 26.01 15.7031 25.162C15.7031 21.6618 18.5506 18.8143 22.0508 18.8143H24.6666L24.7898 16.7831H9.96802L11.0326 34.3486C11.057 34.7507 11.3901 35.0643 11.793 35.0643H16.4668C15.9876 34.4274 15.7031 33.6359 15.7031 32.7792C15.7031 31.7915 16.3331 30.9483 17.2123 30.6299C16.9007 30.152 16.7188 29.5823 16.7188 28.9706C16.7188 28.3582 16.901 27.7879 17.2133 27.3097C16.9649 27.2537 16.8271 27.1988 16.8552 27.1452Z" fill="#242D35"/>
<path d="M17.3781 15.2598C17.3787 15.2598 17.3793 15.2596 17.3799 15.2596H24.9961C25.4168 15.2596 25.7578 14.9187 25.7578 14.4979C25.7578 14.0772 25.4168 13.7362 24.9961 13.7362H18.7851L20.8384 10.5878H23.4727C23.8934 10.5878 24.2344 10.2468 24.2344 9.82605C24.2344 9.40532 23.8934 9.06433 23.4727 9.06433H20.4258C20.1683 9.06433 19.9283 9.19426 19.7878 9.40988L16.9663 13.7362H9.76172C9.34099 13.7362 9 14.0772 9 14.4979C9 14.9187 9.34099 15.2596 9.76172 15.2596H17.3753C17.3763 15.2596 17.3773 15.2598 17.3781 15.2598Z" fill="#242D35"/>
<path d="M17.2266 25.162C17.2266 25.5827 17.5676 25.9237 17.9883 25.9237H34.2383C34.659 25.9237 35 25.5827 35 25.162C35 22.5019 32.8358 20.3378 30.1758 20.3378H22.0508C19.3907 20.3378 17.2266 22.5019 17.2266 25.162Z" fill="#242D35"/>
<path d="M19.7656 27.4471C18.9242 27.4471 18.2422 28.1291 18.2422 28.9706C18.2422 29.812 18.9242 30.494 19.7656 30.494H32.4609C33.3024 30.494 33.9844 29.812 33.9844 28.9706C33.9844 28.1291 33.3024 27.4471 32.4609 27.4471H19.7656Z" fill="#242D35"/>
<path d="M34.2383 32.0175H17.9883C17.5676 32.0175 17.2266 32.3584 17.2266 32.7792C17.2266 34.0392 18.2517 35.0643 19.5117 35.0643H32.7148C33.9749 35.0643 35 34.0392 35 32.7792C35 32.3584 34.659 32.0175 34.2383 32.0175Z" fill="#242D35"/>
</g>
<defs>
<clipPath id="clip0_1_27103">
<rect width="26" height="26" fill="white" transform="translate(9 9.06433)"/>
</clipPath>
</defs>
</svg>
