<svg width="24" height="24" viewBox="0 0 24 24" fill="none" xmlns="http://www.w3.org/2000/svg">
<path fill-rule="evenodd" clip-rule="evenodd" d="M10 6C9.44772 6 9 6.44772 9 7V17C9 17.5523 9.44771 18 10 18H21C21.5523 18 22 17.5523 22 17V7C22 6.44772 21.5523 6 21 6H10ZM7 13.9432V17C7 18.6569 8.34315 20 10 20H21C22.6569 20 24 18.6569 24 17V7C24 5.34315 22.6569 4 21 4H10C8.34315 4 7 5.34315 7 7V10.0568L1.58124 6.18627C1.27642 5.96854 0.875489 5.93943 0.542418 6.11083C0.209347 6.28224 0 6.62541 0 7L0 17C0 17.3746 0.209347 17.7178 0.542418 17.8892C0.875489 18.0606 1.27642 18.0315 1.58124 17.8137L7 13.9432ZM6.27953 12L2 8.94319V15.0568L6.27953 12Z" fill="#242D35"/>
</svg>
