<svg width="44" height="44" viewBox="0 0 44 44" fill="none" xmlns="http://www.w3.org/2000/svg">
<path d="M0 12C0 5.37258 5.37258 0 12 0H32C38.6274 0 44 5.37258 44 12V32C44 38.6274 38.6274 44 32 44H12C5.37258 44 0 38.6274 0 32V12Z" fill="#EBEEF0"/>
<g clip-path="url(#clip0_1_27141)">
<path d="M27.8004 8.94775H16.1996C15.3356 8.94775 14.6327 9.65062 14.6327 10.5143V11.5478H29.3669V10.5143C29.3669 9.65062 28.6641 8.94775 27.8004 8.94775ZM24.1669 11.1144H19.8336C19.5944 11.1144 19.4003 10.9203 19.4003 10.6811C19.4003 10.4419 19.5944 10.2478 19.8336 10.2478H24.1669C24.4061 10.2478 24.6002 10.4419 24.6002 10.6811C24.6002 10.9203 24.4061 11.1144 24.1669 11.1144ZM27.2002 11.1144H26.7669C26.5277 11.1144 26.3336 10.9203 26.3336 10.6811C26.3336 10.4419 26.5277 10.2478 26.7669 10.2478H27.2002C27.4394 10.2478 27.6336 10.4419 27.6336 10.6811C27.6336 10.9203 27.4395 11.1144 27.2002 11.1144Z" fill="#242D35"/>
<path d="M22.5379 31.9144H21.462C21.2808 31.9144 21.1331 32.0617 21.1331 32.2433V32.4527C21.1331 32.6338 21.2804 32.7811 21.462 32.7811H22.5379C22.7191 32.7811 22.8664 32.6338 22.8664 32.4527V32.2433C22.8668 32.0617 22.7191 31.9144 22.5379 31.9144Z" fill="#242D35"/>
<path d="M29.3669 12.4144H14.6335V29.7477H29.3669V12.4144Z" fill="#242D35"/>
<path d="M14.6335 30.6144V33.3812C14.6335 34.2448 15.3364 34.9477 16.2 34.9477H27.8008C28.6645 34.9477 29.3673 34.2448 29.3673 33.3812V30.6144H14.6335ZM23.7335 32.4526C23.7335 33.1117 23.1975 33.6477 22.5384 33.6477H21.4625C20.8034 33.6477 20.2669 33.1117 20.2669 32.4526V32.2432C20.2669 31.5842 20.8034 31.0477 21.4625 31.0477H22.5384C23.1975 31.0477 23.7335 31.5842 23.7335 32.2432V32.4526Z" fill="#242D35"/>
</g>
<defs>
<clipPath id="clip0_1_27141">
<rect width="26" height="26" fill="white" transform="translate(9 8.94775)"/>
</clipPath>
</defs>
</svg>
