<svg width="44" height="44" viewBox="0 0 44 44" fill="none" xmlns="http://www.w3.org/2000/svg">
<rect width="44" height="44" rx="12" fill="#EBEEF0"/>
<path d="M12.297 32.5655C11.8501 32.5655 11.4884 32.9271 11.4884 33.3741C11.4884 33.821 11.8501 34.1826 12.297 34.1826H31.703C32.1499 34.1826 32.5115 33.821 32.5115 33.3741C32.5115 32.9271 32.1499 32.5655 31.703 32.5655C31.5401 32.5655 30.7315 32.5655 30.8944 32.5655C30.8944 32.39 30.8944 25.8028 30.8944 26.0429C30.7192 26.0429 27.389 26.0429 27.5783 26.0429C27.1795 28.794 24.8284 30.8944 22 30.8944C19.1755 30.8944 16.821 28.798 16.4216 26.0429C16.2465 26.0429 12.9163 26.0429 13.1056 26.0429C13.1056 26.2184 13.1056 32.8056 13.1056 32.5655C12.9427 32.5655 12.1341 32.5655 12.297 32.5655Z" fill="#242D35"/>
<path d="M12.297 17.9571C11.8441 17.9571 11.4884 18.3128 11.4884 18.7656C11.4884 19.2185 11.8441 19.5742 12.297 19.5742C12.4598 19.5742 13.2684 19.5742 13.1056 19.5742C13.1056 19.4114 13.1056 17.7942 13.1056 17.9571C12.9427 17.9571 12.1341 17.9571 12.297 17.9571Z" fill="#242D35"/>
<path d="M31.7029 19.5743C32.1558 19.5743 32.5115 19.2186 32.5115 18.7657C32.5115 18.3129 32.1558 17.9572 31.7029 17.9572C31.5401 17.9572 30.7315 17.9572 30.8943 17.9572C30.8943 18.12 30.8943 19.7372 30.8943 19.5743C31.0572 19.5743 31.8658 19.5743 31.7029 19.5743Z" fill="#242D35"/>
<path d="M12.297 24.4258C11.8441 24.4258 11.4884 24.7815 11.4884 25.2344C11.4884 25.6873 11.8441 26.043 12.297 26.043C12.4598 26.043 13.2684 26.043 13.1056 26.043C13.1056 25.8801 13.1056 24.263 13.1056 24.4258C12.9427 24.4258 12.1341 24.4258 12.297 24.4258Z" fill="#242D35"/>
<path d="M31.7029 26.0429C32.1558 26.0429 32.5115 25.6872 32.5115 25.2344C32.5115 24.7815 32.1558 24.4258 31.7029 24.4258C31.5401 24.4258 30.7315 24.4258 30.8943 24.4258C30.8943 24.5886 30.8943 26.2058 30.8943 26.0429C31.0572 26.0429 31.8658 26.0429 31.7029 26.0429Z" fill="#242D35"/>
<path d="M16.3398 19.5742C16.1602 19.5742 12.9305 19.5742 13.1055 19.5742C13.1055 20.1207 13.1055 24.669 13.1055 24.4257C13.2852 24.4257 16.5148 24.4257 16.3398 24.4257C16.3398 23.8793 16.3398 19.331 16.3398 19.5742Z" fill="#242D35"/>
<path d="M21.9999 29.2773C24.229 29.2773 26.0429 27.4636 26.0429 25.2344C26.0429 25.0588 26.0429 18.5255 26.0429 18.7657C26.0429 16.5366 24.2292 14.7228 21.9999 14.7228C19.7709 14.7228 17.957 16.5365 17.957 18.7657C17.957 18.9412 17.957 25.4745 17.957 25.2344C17.957 27.4634 19.7707 29.2773 21.9999 29.2773ZM21.1914 18.2032C21.1914 18.0403 21.1914 17.0828 21.1914 17.2457C21.1914 16.7987 21.553 16.4371 21.9999 16.4371C22.4469 16.4371 22.8085 16.7987 22.8085 17.2457C22.8085 17.4085 22.8085 18.364 22.8085 18.2012C23.1668 18.328 23.4715 18.5205 23.7158 18.7657C24.0309 19.0815 24.0309 19.594 23.7142 19.9091C23.3976 20.2242 22.8859 20.2242 22.5709 19.9075C22.3391 19.6746 21.9944 19.6521 21.7076 19.7706C21.4208 19.8891 21.1918 20.1487 21.1914 20.48C21.1914 20.9261 21.5538 21.2886 22 21.2886C23.3376 21.2886 24.4257 22.3767 24.4257 23.7143C24.4257 24.7551 23.7594 25.6521 22.8086 25.9911C22.8086 26.154 22.8086 27.1115 22.8086 26.9487C22.8086 27.3956 22.4469 27.7572 22 27.7572C21.5531 27.7572 21.1914 27.3956 21.1914 26.9487C21.1914 26.7858 21.1914 25.8303 21.1914 25.9931C20.8332 25.8663 20.5284 25.6738 20.2841 25.4286C19.9691 25.1128 19.9691 24.6003 20.2857 24.2852C20.6003 23.9714 21.112 23.969 21.4291 24.2868C21.662 24.5202 22.0071 24.5428 22.2938 24.4243C22.5806 24.3058 22.809 24.046 22.8086 23.7143C22.8086 23.2682 22.4462 22.9057 22 22.9057C20.6624 22.9057 19.5743 21.8177 19.5743 20.48C19.5742 19.4392 20.2405 18.5423 21.1914 18.2032Z" fill="#242D35"/>
<path d="M22 13.1056C24.8245 13.1056 27.1789 15.2021 27.5783 17.9571C27.7535 17.9571 31.0837 17.9571 30.8944 17.9571C30.8944 17.7816 30.8944 11.1944 30.8944 11.4345C31.0572 11.4345 31.8658 11.4345 31.703 11.4345C32.1499 11.4345 32.5115 11.0729 32.5115 10.626C32.5115 10.179 32.1499 9.81738 31.703 9.81738C25.3925 9.81738 18.0117 9.81738 12.297 9.81738C11.8501 9.81738 11.4884 10.179 11.4884 10.626C11.4884 11.0729 11.8501 11.4345 12.297 11.4345C12.4598 11.4345 13.2684 11.4345 13.1056 11.4345C13.1056 11.6101 13.1056 18.1973 13.1056 17.9571C13.2807 17.9571 16.6109 17.9571 16.4216 17.9571C16.8205 15.206 19.1715 13.1056 22 13.1056Z" fill="#242D35"/>
<path d="M27.6601 24.4257C27.8397 24.4257 31.0694 24.4257 30.8944 24.4257C30.8944 23.8793 30.8944 19.331 30.8944 19.5742C30.7147 19.5742 27.4851 19.5742 27.6601 19.5742C27.6601 20.1207 27.6601 24.669 27.6601 24.4257Z" fill="#242D35"/>
</svg>
