<svg width="44" height="44" viewBox="0 0 44 44" fill="none" xmlns="http://www.w3.org/2000/svg">
<path d="M0 12C0 5.37258 5.37258 0 12 0H32C38.6274 0 44 5.37258 44 12V32C44 38.6274 38.6274 44 32 44H12C5.37258 44 0 38.6274 0 32V12Z" fill="#EBEEF0"/>
<path d="M33.3125 21.5108C32.8426 21.5108 32.389 21.5767 31.9607 21.6979L30.8436 19.753H31.4375C31.9552 19.753 32.375 19.3595 32.375 18.8741V15.3585C32.375 14.7243 31.6788 14.2987 31.0599 14.554L28.4709 15.622L27.5754 14.063C27.4119 13.7782 27.0949 13.6007 26.75 13.6007H23C22.7513 13.6007 22.5129 13.6933 22.3371 13.8582L20.4621 15.616C20.096 15.9592 20.096 16.5157 20.4621 16.8589C20.8282 17.2022 21.4218 17.2022 21.7879 16.8589L23.3883 15.3586H26.1901L26.75 16.3333V18.0188C24.3741 18.1379 22.5633 18.6957 21.125 19.2632V25.0264H23.9375C24.5551 25.0264 25.1447 24.9128 25.6851 24.7084C24.9177 25.9362 23.7233 26.7842 22.0625 26.7842H16.4375C15.9197 26.7842 15.5 27.1778 15.5 27.6632C15.5 28.1485 15.9197 28.5421 16.4375 28.5421H22.0625C26.3447 28.5421 28.625 24.6892 28.625 20.6319V19.753H28.7141L30.3109 22.5331C29.2814 23.3399 28.625 24.5519 28.625 25.9053C28.625 28.3285 30.7278 30.2999 33.3125 30.2999C35.8972 30.2999 38 28.3285 38 25.9053C38 23.4822 35.8972 21.5108 33.3125 21.5108ZM33.3125 28.5421C31.7617 28.5421 30.5 27.3592 30.5 25.9053C30.5 25.2243 30.7769 24.6028 31.2306 24.1344L32.4871 26.322C32.733 26.7502 33.3019 26.9089 33.7569 26.6792C34.2128 26.449 34.3834 25.9161 34.1379 25.4887L32.8807 23.2998C34.59 23.0518 36.125 24.2959 36.125 25.9054C36.125 27.3592 34.8633 28.5421 33.3125 28.5421Z" fill="#242D35"/>
<path d="M19.25 25.0264V20.0547C17.5731 20.7657 16.5833 21.0243 15.0355 19.9528C14.6477 19.6196 12.5644 17.9951 8.8125 17.9951C8.29475 17.9951 7.875 18.3886 7.875 18.874C7.875 19.3594 8.29475 19.7529 8.8125 19.7529C11.3551 19.7529 12.9036 20.6239 13.5 21.0416V22.392C12.716 21.839 11.7419 21.5107 10.6875 21.5107C8.10281 21.5107 6 23.4821 6 25.9053C6 28.3284 8.10281 30.2998 10.6875 30.2998C13.2722 30.2998 15.375 28.3284 15.375 25.9053C15.375 25.6043 15.3424 25.3104 15.2807 25.0264H19.25ZM10.6875 28.542C9.13669 28.542 7.875 27.3592 7.875 25.9053C7.875 24.4514 9.13669 23.2686 10.6875 23.2686C12.2383 23.2686 13.5 24.4514 13.5 25.9053C13.5 27.3592 12.2383 28.542 10.6875 28.542Z" fill="#242D35"/>
<path d="M10.6875 26.7842C11.2053 26.7842 11.625 26.3907 11.625 25.9053C11.625 25.4199 11.2053 25.0264 10.6875 25.0264C10.1697 25.0264 9.75 25.4199 9.75 25.9053C9.75 26.3907 10.1697 26.7842 10.6875 26.7842Z" fill="#242D35"/>
</svg>
