<svg width="24" height="24" viewBox="0 0 24 24" fill="none" xmlns="http://www.w3.org/2000/svg">
<path d="M15.7071 6.29289C16.0976 6.68342 16.0976 7.31658 15.7071 7.70711L11.7071 11.7071C11.3166 12.0976 10.6834 12.0976 10.2929 11.7071L8.29289 9.70711C7.90237 9.31658 7.90237 8.68342 8.29289 8.29289C8.68342 7.90237 9.31658 7.90237 9.70711 8.29289L11 9.58579L14.2929 6.29289C14.6834 5.90237 15.3166 5.90237 15.7071 6.29289Z" fill="#242D35"/>
<path fill-rule="evenodd" clip-rule="evenodd" d="M2 4C2 2.34315 3.34315 1 5 1H19C20.6569 1 22 2.34315 22 4V20C22 21.6569 20.6569 23 19 23H5C3.34315 23 2 21.6569 2 20V4ZM4 17V20C4 20.5523 4.44772 21 5 21H19C19.5523 21 20 20.5523 20 20V17H4ZM20 15H4V4C4 3.44772 4.44772 3 5 3H19C19.5523 3 20 3.44772 20 4V15Z" fill="#242D35"/>
</svg>
