<svg width="44" height="44" viewBox="0 0 44 44" fill="none" xmlns="http://www.w3.org/2000/svg">
<path d="M0 12C0 5.37258 5.37258 0 12 0H32C38.6274 0 44 5.37258 44 12V32C44 38.6274 38.6274 44 32 44H12C5.37258 44 0 38.6274 0 32V12Z" fill="#EBEEF0"/>
<path d="M26.0007 13.7042C23.1057 13.7042 20.7507 15.8629 20.7507 18.5167C20.7507 21.1704 23.1057 23.3292 26.0007 23.3292C28.8957 23.3292 31.2507 21.1704 31.2507 18.5167C31.2507 15.8629 28.8957 13.7042 26.0007 13.7042ZM25.8814 18.0983L26.3586 18.235C26.8623 18.3793 27.2007 18.8012 27.2007 19.2849V19.4333C27.2007 19.9613 26.7928 20.4034 26.2507 20.5092V20.625C26.2507 20.8275 26.0716 20.9917 25.8507 20.9917C25.6298 20.9917 25.4507 20.8275 25.4507 20.625V20.4105C25.065 20.2274 24.8007 19.8582 24.8007 19.4333C24.8007 19.2308 24.9798 19.0667 25.2007 19.0667C25.4216 19.0667 25.6007 19.2308 25.6007 19.4333C25.6007 19.6355 25.7802 19.8 26.0007 19.8C26.2213 19.8 26.4007 19.6355 26.4007 19.4333V19.285C26.4007 19.1237 26.2879 18.9831 26.12 18.935L25.6428 18.7983C25.1391 18.654 24.8007 18.2321 24.8007 17.7484V17.6C24.8007 17.122 25.1352 16.7145 25.6007 16.5631V16.4083C25.6007 16.2058 25.7798 16.0417 26.0007 16.0417C26.2216 16.0417 26.4007 16.2058 26.4007 16.4083V16.5631C26.8663 16.7145 27.2007 17.122 27.2007 17.6C27.2007 17.8025 27.0216 17.9667 26.8007 17.9667C26.5798 17.9667 26.4007 17.8025 26.4007 17.6C26.4007 17.3978 26.2213 17.2333 26.0007 17.2333C25.7802 17.2333 25.6007 17.3978 25.6007 17.6V17.7484C25.6007 17.9096 25.7135 18.0502 25.8814 18.0983ZM29.687 32.2666C28.5903 32.2598 27.7007 31.4402 27.7007 30.4333V24.3084C27.7007 24.0766 27.4686 23.9022 27.221 23.9495C23.5075 24.6592 19.9507 22.0432 19.9507 18.5167C19.9507 14.9911 23.5063 12.3739 27.221 13.0838C27.4686 13.1312 27.7007 12.9567 27.7007 12.7248V12.4667C27.7007 11.6567 26.9844 11 26.1007 11H13.1007C12.2171 11 11.5007 11.6567 11.5007 12.4667V30.4333C11.5007 31.8509 12.7543 33 14.3007 33H29.7007C29.9323 33 30.1178 32.8198 30.0995 32.604C30.0831 32.411 29.8981 32.268 29.687 32.2666ZM15.4007 16.3625H18.8007C19.0216 16.3625 19.2007 16.5267 19.2007 16.7292C19.2007 16.9317 19.0216 17.0958 18.8007 17.0958H15.4007C15.1798 17.0958 15.0007 16.9317 15.0007 16.7292C15.0007 16.5267 15.1798 16.3625 15.4007 16.3625ZM15.4007 20.4875H18.8007C19.0216 20.4875 19.2007 20.6517 19.2007 20.8542C19.2007 21.0567 19.0216 21.2208 18.8007 21.2208H15.4007C15.1798 21.2208 15.0007 21.0567 15.0007 20.8542C15.0007 20.6517 15.1798 20.4875 15.4007 20.4875ZM23.8007 29.1958H15.4007C15.1798 29.1958 15.0007 29.0317 15.0007 28.8292C15.0007 28.6267 15.1798 28.4625 15.4007 28.4625H23.8007C24.0216 28.4625 24.2007 28.6267 24.2007 28.8292C24.2007 29.0317 24.0216 29.1958 23.8007 29.1958ZM23.8007 25.3458H15.4007C15.1798 25.3458 15.0007 25.1817 15.0007 24.9792C15.0007 24.7767 15.1798 24.6125 15.4007 24.6125H23.8007C24.0216 24.6125 24.2007 24.7767 24.2007 24.9792C24.2007 25.1817 24.0216 25.3458 23.8007 25.3458ZM32.4992 29.8824C32.5007 30.8958 31.6047 31.7171 30.5007 31.7171C29.3975 31.7171 28.5022 30.8976 28.5022 29.8852C28.5022 26.4984 28.4996 25.1789 28.502 24.6564C28.5029 24.4545 28.6817 24.2917 28.902 24.2917H30.9007C31.7307 24.2917 32.4132 24.871 32.4927 25.6126L32.4992 29.8824Z" fill="#242D35"/>
</svg>
