<svg width="24" height="24" viewBox="0 0 24 24" fill="none" xmlns="http://www.w3.org/2000/svg">
<path d="M12 14C12.7364 14 13.3333 13.5759 13.3333 13.0526L14 6.5C14 5.55264 13.3333 5 12 5C10.6667 5 10 5.55264 10 6.5L10.6667 13.0526C10.6667 13.5759 11.2636 14 12 14Z" fill="#242D35"/>
<path d="M11.99 19C10.891 19 10 18.1046 10 17C10 15.8954 10.891 15 11.99 15H12.01C13.109 15 14 15.8954 14 17C14 18.1046 13.109 19 12.01 19H11.99Z" fill="#242D35"/>
<path fill-rule="evenodd" clip-rule="evenodd" d="M1 12C1 18.0751 5.92487 23 12 23C18.0751 23 23 18.0751 23 12C23 5.92487 18.0751 1 12 1C5.92487 1 1 5.92487 1 12ZM12 21C7.02944 21 3 16.9706 3 12C3 7.02944 7.02944 3 12 3C16.9706 3 21 7.02944 21 12C21 16.9706 16.9706 21 12 21Z" fill="#242D35"/>
</svg>
