<svg width="24" height="24" viewBox="0 0 24 24" fill="none" xmlns="http://www.w3.org/2000/svg">
<path fill-rule="evenodd" clip-rule="evenodd" d="M20 11.7315L20 11.7262L20 11.2124C19.8839 9.3382 19.0871 7.5702 17.7584 6.24155C16.4298 4.9129 14.6618 4.1161 12.7876 4.00003H12.2685C11.0733 3.99691 9.89418 4.27617 8.82729 4.81506L8.81971 4.81889C7.53648 5.46023 6.45714 6.44615 5.7026 7.66625C4.94806 8.88636 4.54812 10.2924 4.54756 11.727L4.54756 11.7315C4.54444 12.9267 4.8237 14.1058 5.36259 15.1727C5.60301 15.6487 5.64339 16.201 5.47476 16.7069L4.56558 19.4344L7.29312 18.5252C7.79902 18.3566 8.3513 18.397 8.82729 18.6374C9.89418 19.1763 11.0733 19.4556 12.2685 19.4524L12.273 19.4524C13.7076 19.4519 15.1136 19.0519 16.3337 18.2974C17.5539 17.5429 18.5398 16.4635 19.1811 15.1803L19.1849 15.1727C19.7238 14.1058 20.0031 12.9267 20 11.7315ZM22 11.1541V11.7262C22.0039 13.2365 21.651 14.7264 20.9701 16.0744C20.1628 17.6898 18.9216 19.0485 17.3857 19.9984C15.8497 20.9483 14.0797 21.4517 12.2738 21.4524C10.7635 21.4564 9.27365 21.1035 7.92558 20.4226L3.35728 21.9454C2.5522 22.2137 1.78627 21.4478 2.05463 20.6427L3.5774 16.0744C2.89648 14.7264 2.54362 13.2365 2.54756 11.7262C2.54826 9.92032 3.05174 8.15026 4.00159 6.61432C4.95145 5.07837 6.31018 3.83722 7.92558 3.02987C9.27365 2.34895 10.7635 1.99609 12.2738 2.00003H12.8459C15.2309 2.13161 17.4836 3.1383 19.1727 4.82734C20.8617 6.51637 21.8684 8.76907 22 11.1541Z" fill="#242D35"/>
</svg>
