<svg width="24" height="24" viewBox="0 0 24 24" fill="none" xmlns="http://www.w3.org/2000/svg">
<path fill-rule="evenodd" clip-rule="evenodd" d="M12 1C12.4015 1 12.764 1.25155 12.9207 1.63881L15.4954 8.00287L22.0845 8.58851C22.4851 8.62412 22.8264 8.90764 22.9509 9.30819C23.0753 9.70873 22.9586 10.1484 22.6547 10.4242L17.651 14.9654L19.1538 21.7144C19.2452 22.1246 19.0931 22.5522 18.7679 22.7998C18.4426 23.0475 18.0075 23.0669 17.6632 22.8493L12 19.2684L6.33676 22.8493C5.99253 23.0669 5.55735 23.0475 5.23211 22.7998C4.90687 22.5522 4.75483 22.1246 4.84618 21.7144L6.34904 14.9654L1.34527 10.4242C1.04137 10.1484 0.924704 9.70873 1.04913 9.30819C1.17355 8.90764 1.51487 8.62412 1.9155 8.58851L8.50461 8.00287L11.0793 1.63881C11.236 1.25155 11.5985 1 12 1ZM12 4.73225L10.1107 9.40214C9.96599 9.75991 9.64412 10.0044 9.27455 10.0372L4.4462 10.4663L8.11479 13.7958C8.39535 14.0504 8.5182 14.4469 8.43387 14.8256L7.33228 19.7725L11.4833 17.1478C11.8011 16.9469 12.1989 16.9469 12.5167 17.1478L16.6677 19.7725L15.5661 14.8256C15.4818 14.4469 15.6047 14.0504 15.8852 13.7958L19.5538 10.4663L14.7255 10.0372C14.3559 10.0044 14.034 9.75991 13.8893 9.40214L12 4.73225Z" fill="#242D35"/>
</svg>
