<svg width="24" height="24" viewBox="0 0 24 24" fill="none" xmlns="http://www.w3.org/2000/svg">
<path fill-rule="evenodd" clip-rule="evenodd" d="M10 1H11V0H13V1H14C14 1 19 2.19922 19 7C19 7 20 7.19922 20 9H4C4 7.19922 5 7 5 7C5 2.19922 10 1 10 1ZM11 6V3H10.2873C10.2012 3.02852 10.0902 3.06787 9.96132 3.11943C9.59968 3.26404 9.12808 3.49199 8.66853 3.82284C7.77678 4.46483 7 5.42117 7 7H17C17 5.42117 16.2232 4.46483 15.3315 3.82284C14.8719 3.49199 14.4003 3.26404 14.0387 3.11943C13.9098 3.06787 13.7988 3.02852 13.7127 3H13V6H11Z" fill="#242D35"/>
<path d="M12 17C8.15625 17 5 13.8438 5 10H7C7 12.7539 9.24609 15 12 15C14.7539 15 17 12.7539 17 10H19C19 13.8438 15.8438 17 12 17Z" fill="#242D35"/>
<path d="M8.71026 18.1167L8.37251 17.9374L8.00133 18.0293C6.75511 18.3376 5.27386 18.7919 4.09786 19.6795C2.86378 20.611 2 21.9956 2 24H4C4 22.6711 4.52968 21.8593 5.30271 21.2759C6.05204 20.7103 7.05207 20.3466 8.12722 20.0614C9.32377 20.6293 10.5979 20.9005 12 20.9005C13.3613 20.9005 14.6862 20.5514 15.8478 20.0548C16.9324 20.341 17.9421 20.7059 18.6973 21.2759C19.4703 21.8593 20 22.6711 20 24H22C22 21.9956 21.1362 20.611 19.9021 19.6795C18.7261 18.7919 17.2449 18.3376 15.9987 18.0293L15.6572 17.9448L15.3381 18.0927C14.2874 18.5796 13.1282 18.9005 12 18.9005C10.7609 18.9005 9.69956 18.6417 8.71026 18.1167Z" fill="#242D35"/>
</svg>
