<svg width="24" height="24" viewBox="0 0 24 24" fill="none" xmlns="http://www.w3.org/2000/svg">
<path fill-rule="evenodd" clip-rule="evenodd" d="M22 3H19.874C19.4299 1.27477 17.8638 0 16 0C14.1362 0 12.5701 1.27477 12.126 3H2C1.44772 3 1 3.44772 1 4C1 4.55228 1.44772 5 2 5H12.126C12.5701 6.72523 14.1362 8 16 8C17.8638 8 19.4299 6.72523 19.874 5H22C22.5523 5 23 4.55228 23 4C23 3.44772 22.5523 3 22 3ZM2 11C1.44772 11 1 11.4477 1 12C1 12.5523 1.44772 13 2 13H4.12602C4.57006 14.7252 6.13616 16 8 16C9.86384 16 11.4299 14.7252 11.874 13H22C22.5523 13 23 12.5523 23 12C23 11.4477 22.5523 11 22 11H11.874C11.4299 9.27477 9.86384 8 8 8C6.13616 8 4.57006 9.27477 4.12602 11H2ZM1 20C1 19.4477 1.44772 19 2 19H12.126C12.5701 17.2748 14.1362 16 16 16C17.8638 16 19.4299 17.2748 19.874 19H22C22.5523 19 23 19.4477 23 20C23 20.5523 22.5523 21 22 21H19.874C19.4299 22.7252 17.8638 24 16 24C14.1362 24 12.5701 22.7252 12.126 21H2C1.44772 21 1 20.5523 1 20ZM16 6C17.1046 6 18 5.10457 18 4C18 2.89543 17.1046 2 16 2C14.8954 2 14 2.89543 14 4C14 5.10457 14.8954 6 16 6ZM8 14C9.10457 14 10 13.1046 10 12C10 10.8954 9.10457 10 8 10C6.89543 10 6 10.8954 6 12C6 13.1046 6.89543 14 8 14ZM18 20C18 21.1046 17.1046 22 16 22C14.8954 22 14 21.1046 14 20C14 18.8954 14.8954 18 16 18C17.1046 18 18 18.8954 18 20Z" fill="#242D35"/>
</svg>
